<svg width="1897" height="914" viewBox="0 0 1897 914" fill="none" xmlns="http://www.w3.org/2000/svg">
<path d="M737 393.874C736.951 382.941 768.825 227.77 846.926 107.825C917.005 0.321358 1046.43 -46.1798 1171.42 60.0317C1305.35 173.857 1432.08 203.999 1539.76 195.016C1646.05 186.033 1726.73 119.421 1765.38 74.8336C1849.19 -21.4728 1935.95 60.9748 1878.38 196.385C1851.37 259.337 1805.66 270.639 1730.57 265.239C1652.08 259.595 1540.34 225.632 1376.83 230.271C1219.11 234.86 1035.36 278.071 923.644 353.24C804.741 433.32 736.791 489.153 737 393.874Z" fill="#FEAE46"/>
<path d="M1374.34 670.15C1372.98 665.075 1351.18 627.027 1313.54 569.794C1272.39 507.148 1217.62 415.215 1142.05 344.232C1113.3 317.323 1079.21 303.038 1052.94 318.15C1024.46 334.594 1005.06 377.02 977.16 419.76C953.381 456.177 915.104 484.442 876.178 478.186C829.708 470.653 785.66 437.949 743.083 438.967C655.225 441.409 614.541 584.759 555.201 682.336C529.106 725.222 493.804 753.172 457.093 755.738C418.302 758.326 378.149 740.863 338.271 723.737C-83.8011 541.461 -57.6442 1058.97 128.621 871.329C168.837 830.754 215.2 765.752 288.662 761.892C367.544 757.859 478.009 811.53 557.021 744.064C600.409 707.034 637.52 656.4 688.476 641.817C739.285 627.302 798.857 652.94 857.493 675.264C913.278 696.547 967.215 705.295 1012.26 697.756C1056.37 690.353 1096.14 677.025 1132.72 679.826C1216.77 686.257 1283.42 724.283 1326.28 727.619C1368.37 730.781 1386.36 714.443 1374.34 670.15Z" fill="#244D62"/>
<path d="M386.004 713.441L386.111 713.481L386.218 713.526L386.302 713.548L386.409 713.587L386.516 713.61H386.618L386.725 713.633H386.939L387.046 713.61H387.131L387.238 713.587L387.345 713.571L387.429 713.548L387.536 713.503L387.643 713.481L387.728 713.441L387.812 713.396L387.919 713.334L388.004 713.295L388.089 713.227L388.173 713.166L388.235 713.104L388.325 713.036L388.472 712.89L388.596 712.721L388.641 712.637L388.703 712.552L388.748 712.445L388.81 712.339L388.832 712.254L388.877 712.147L388.917 712.04L388.962 711.827V711.725L388.984 711.618V711.427L388.962 711.32V711.213L388.939 711.106L388.917 711.022L388.894 710.915L388.855 710.808L388.832 710.724L388.787 710.617L388.748 710.533L388.68 710.448L388.641 710.364L388.579 710.279L388.511 710.195L388.449 710.111L388.387 710.043L388.325 709.959L388.235 709.897L388.151 709.835L388.066 709.767L387.897 709.644L387.683 709.554L386.004 713.441Z" fill="#141515"/>
</svg>
