<svg width="315" height="344" viewBox="0 0 315 344" fill="none" xmlns="http://www.w3.org/2000/svg">
<g opacity="0.3">
<path d="M155.386 0.842143C157.406 6.2325 159.427 11.6229 160.774 17.0132C160.774 18.3608 160.774 19.7084 160.774 21.056C160.774 22.4036 160.774 24.4249 160.774 24.4249C161.447 25.7725 163.468 27.7939 165.488 29.8153C172.896 37.2271 180.978 45.3126 187.713 54.7457C191.08 59.4623 193.774 64.8526 195.795 70.243C197.815 76.3071 197.815 82.3713 197.815 87.7616C197.815 99.2161 197.141 110.671 193.101 120.778C193.101 109.323 192.427 98.5423 190.407 87.7616C189.06 76.3071 185.692 68.2216 179.631 59.4623C173.57 50.703 166.161 43.2912 159.427 33.8581C158.08 31.1629 156.059 29.1415 154.712 25.7726C154.712 23.0774 154.712 22.4036 154.712 21.056V17.0132C154.712 11.6229 154.712 6.23252 154.712 0.168365L155.386 0.842143Z" fill="url(#paint0_linear_51_2)"/>
<path d="M175.59 9.60148C182.998 16.3394 187.039 25.0987 191.08 34.5319C194.448 43.2912 199.835 51.3768 205.223 59.4623C210.611 68.2216 213.305 78.3285 213.305 87.7616C213.978 97.1948 214.652 107.302 213.305 117.409C213.305 107.975 211.284 97.8686 209.938 88.4354C208.591 79.0023 205.897 69.5692 201.182 61.4837C196.468 53.3981 190.407 44.6388 187.713 35.2057C184.345 26.4464 180.978 17.0132 175.59 8.9277V9.60148Z" fill="url(#paint1_linear_51_2)"/>
<path d="M208.591 31.8367C217.346 42.6174 223.407 55.4195 227.448 68.8954C229.468 75.6334 230.142 83.0451 230.142 89.783C230.142 96.521 228.795 103.933 226.774 110.671C228.121 83.0451 219.366 56.7671 207.917 31.8367H208.591Z" fill="url(#paint2_linear_51_2)"/>
<path d="M232.162 55.4195C232.162 55.4195 238.224 57.4409 240.244 60.1361C242.265 62.8313 243.611 66.2002 244.285 68.8954C244.285 72.2644 244.285 75.6333 244.285 78.3285C243.611 81.6975 242.265 84.3927 240.918 87.0879C240.918 74.9596 242.265 63.505 232.836 55.4195H232.162Z" fill="url(#paint3_linear_51_2)"/>
<path d="M83.3237 136.949C92.0789 124.147 106.222 118.082 120.365 117.409C127.1 117.409 134.508 117.409 141.243 119.43C147.978 120.778 154.712 123.473 160.774 126.168C154.039 124.147 147.304 122.125 140.569 120.778C133.835 120.104 127.1 119.43 120.365 120.778C106.895 122.125 94.0994 129.537 87.3646 140.318C87.3646 140.318 85.3442 142.339 83.9972 141.665C82.6503 140.991 82.6502 139.644 83.3237 138.296V136.949Z" fill="url(#paint4_linear_51_2)"/>
<path d="M88.0381 150.425C94.7728 140.318 106.222 135.601 116.998 134.253L133.161 132.232C138.549 131.558 143.937 130.884 149.325 128.863C144.61 131.558 139.222 132.232 133.835 133.58L117.671 136.275C112.283 137.622 107.569 139.644 102.855 142.339C98.8137 145.034 94.0994 149.077 92.079 153.12C92.079 153.12 90.0585 155.141 88.7116 154.467C87.3646 154.467 87.3646 152.446 88.0381 151.098V150.425Z" fill="url(#paint5_linear_51_2)"/>
<path d="M115.651 139.644C115.651 139.644 113.63 145.708 108.242 147.729C102.855 150.424 98.1403 150.424 96.7933 147.729C95.4464 145.708 98.8138 141.665 104.202 139.644C109.589 136.949 114.304 136.949 115.651 139.644Z" fill="url(#paint6_linear_51_2)"/>
<path d="M96.7933 151.098C106.895 151.772 117.671 147.729 123.059 137.622C119.018 147.729 108.242 155.141 96.7933 155.815C95.4464 155.815 94.0994 155.141 94.0994 153.793C94.0994 152.446 94.7729 151.098 96.1198 151.098H96.7933Z" fill="url(#paint7_linear_51_2)"/>
<path d="M33.4865 229.258C33.4865 229.258 28.0987 229.932 25.4047 231.28C24.0578 231.954 22.7108 232.627 22.0373 233.975C18.67 237.344 15.3026 240.713 12.6086 244.082L7.89432 249.472C7.89432 249.472 6.54738 250.82 5.87391 251.494V252.841C5.87391 252.841 5.20043 252.841 5.87391 252.167C5.87391 252.167 5.87391 249.472 5.87391 248.125C5.87391 246.103 5.87391 244.082 5.87391 242.061C8.56781 227.911 16.6495 214.435 26.0782 202.981C28.0986 200.959 29.4456 198.264 31.4661 196.243C29.4456 197.59 28.0986 199.611 26.0782 200.959C14.6291 211.74 4.52691 225.216 1.15952 241.387C1.15952 243.408 0.48609 246.103 0.48609 248.799C0.48609 251.494 -0.187405 252.841 2.5065 256.884C5.87389 258.905 7.22086 256.884 8.56781 256.21C9.24129 255.536 10.5882 254.189 11.2617 253.515L15.976 248.125C18.67 244.756 22.0373 240.039 26.0782 237.344C28.7721 235.323 31.4661 233.975 34.16 233.975C34.16 232.627 34.16 231.28 34.16 229.932L33.4865 229.258Z" fill="url(#paint8_linear_51_2)"/>
<path d="M119.018 202.981C124.406 203.654 126.426 210.392 127.773 215.109C129.12 220.499 129.794 225.216 129.794 230.606C129.794 235.996 129.794 241.387 129.12 246.777C128.447 251.494 127.1 258.905 127.773 256.21C133.835 250.82 137.202 239.365 139.222 229.932C141.243 219.825 141.243 209.718 137.875 199.612C142.59 209.045 143.937 219.825 142.59 230.606C142.59 235.996 140.569 241.387 139.222 246.103C137.202 250.82 135.855 256.21 130.467 260.253C128.447 260.927 125.753 261.601 123.732 258.905C122.385 256.21 123.732 254.863 123.732 253.515L125.079 246.103C125.753 241.387 126.426 235.996 126.426 231.28C126.426 225.89 126.426 221.173 125.753 215.783C125.079 211.066 124.406 205.002 119.018 202.981Z" fill="url(#paint9_linear_51_2)"/>
<path d="M159.427 143.687C176.264 124.82 201.182 113.366 226.774 110.671C239.571 109.323 252.367 110.671 265.163 114.04C277.285 117.409 288.734 123.473 298.837 130.884C286.714 126.842 275.265 122.799 263.142 121.451C251.02 119.43 239.571 118.756 227.448 120.104C203.876 122.125 180.978 130.884 159.427 143.687Z" fill="url(#paint10_linear_51_2)"/>
<path d="M229.468 257.558C235.53 244.082 245.632 233.301 258.428 225.889C271.224 219.825 276.612 209.045 277.285 194.895C278.632 181.419 277.285 166.596 282.673 152.446C285.367 145.708 289.408 138.97 294.796 133.58C300.857 128.863 308.265 125.494 315 126.168C300.857 129.537 292.775 142.339 289.408 154.467C286.041 167.269 288.061 181.419 286.714 196.243C286.041 203.654 284.02 211.74 279.979 218.478C275.265 225.216 268.53 229.932 261.795 232.627C249.673 238.018 238.224 246.777 229.468 258.232V257.558Z" fill="url(#paint11_linear_51_2)"/>
<path d="M210.611 263.622C209.264 248.125 203.876 232.627 195.795 219.825C187.713 207.023 174.917 197.59 160.774 191.526H160.1V190.178C160.1 188.831 158.753 186.809 160.1 184.114C162.121 182.093 164.141 182.767 165.488 182.767C168.182 182.767 170.202 184.114 172.896 184.788C177.611 186.809 181.652 188.831 185.692 190.852C193.774 194.895 201.856 200.285 208.591 207.023C222.06 220.499 227.448 239.365 228.795 257.558C226.101 239.365 218.693 221.847 205.897 209.718C199.162 203.654 191.754 198.264 183.672 194.221C179.631 192.2 175.59 190.178 171.549 188.831C169.529 188.157 167.508 187.483 165.488 186.809C164.815 186.809 163.468 186.809 164.141 186.809L162.794 185.462C177.611 192.2 191.08 202.307 199.162 216.456C207.244 229.932 211.284 246.103 211.284 261.601L210.611 263.622Z" fill="url(#paint12_linear_51_2)"/>
<path d="M84.6708 210.392C96.7934 200.959 112.283 196.243 127.773 196.243C142.59 196.243 156.733 188.157 166.835 178.724C166.835 178.724 169.529 177.376 170.202 178.724C170.876 179.398 170.876 181.419 170.202 182.093C158.08 192.2 143.263 198.938 127.773 198.938C112.957 198.264 97.4668 201.633 84.6708 210.392Z" fill="url(#paint13_linear_51_2)"/>
<path d="M90.0585 99.8899C94.0994 102.585 99.4872 105.28 104.202 104.606C108.916 104.606 113.63 100.564 116.998 96.521C116.998 96.521 119.692 94.4996 121.038 95.1734C126.426 97.8685 133.161 99.2161 139.222 97.8685C145.284 96.521 150.671 92.4782 155.386 87.0878C155.386 86.414 156.733 86.414 158.08 87.0878C158.08 87.0878 158.08 87.0878 158.08 87.7616C159.427 90.4568 161.447 93.8258 164.141 94.4996C166.835 94.4996 170.876 92.4782 174.243 91.8044C181.651 89.783 189.733 91.8044 194.447 97.8685C189.06 92.4782 180.978 90.4568 174.243 93.152C170.876 93.8258 168.182 96.521 163.468 96.521C158.753 95.8472 156.059 91.8044 154.712 88.4354H157.406C153.365 94.4996 147.304 99.8899 139.896 101.911C132.488 103.933 124.406 103.259 116.998 99.8899L121.038 98.5424C117.671 103.933 111.61 109.997 104.202 111.344C100.161 112.018 96.7933 111.344 92.7524 111.344C89.385 110.671 86.0176 109.323 82.6502 106.628C80.6298 105.28 79.9564 101.911 81.3033 99.8899C82.6503 97.8686 86.0176 97.1948 88.0381 98.5424L90.0585 99.8899Z" fill="url(#paint14_linear_51_2)"/>
<path d="M302.877 116.735C292.102 109.997 279.306 107.975 267.183 107.302C255.06 107.302 242.264 108.649 230.142 112.018C218.019 115.387 206.57 120.104 195.794 125.494C185.019 130.884 174.243 137.622 163.467 144.36C163.467 144.36 158.08 145.034 156.733 143.013C155.386 140.991 156.059 137.622 158.08 136.275C169.529 130.211 180.304 124.147 192.427 118.756C204.55 114.04 216.672 109.323 228.795 107.302C241.591 104.607 254.387 103.259 267.183 104.607C279.979 105.954 292.775 109.323 302.877 116.735Z" fill="url(#paint15_linear_51_2)"/>
<path d="M192.427 138.97C192.427 138.97 189.06 143.687 186.366 143.013C183.672 143.013 181.652 139.644 182.325 136.949C182.325 134.253 185.692 132.232 188.386 132.906C191.08 132.906 193.101 136.275 192.427 138.97Z" fill="url(#paint16_linear_51_2)"/>
<path d="M182.325 146.382C182.325 149.751 178.284 151.772 174.917 151.772C171.549 151.772 169.529 147.729 169.529 144.36C169.529 140.991 173.57 138.97 176.937 138.97C180.305 138.97 182.325 143.013 182.325 146.382Z" fill="url(#paint17_linear_51_2)"/>
<path d="M203.876 133.58C203.876 133.58 201.182 137.622 198.488 137.622C195.794 137.622 194.448 134.927 194.448 132.232C194.448 129.537 197.141 128.189 199.835 128.189C202.529 128.189 203.876 130.885 203.876 133.58Z" fill="url(#paint18_linear_51_2)"/>
<path d="M213.978 130.211C213.978 130.211 211.284 134.253 209.264 133.58C207.244 133.58 205.223 130.884 205.897 128.863C206.57 126.842 208.591 124.82 210.611 125.494C212.631 125.494 214.652 128.189 213.978 130.211Z" fill="url(#paint19_linear_51_2)"/>
<path d="M224.754 126.842C224.754 126.842 222.06 130.884 220.04 130.211C218.019 130.211 215.999 127.515 216.672 125.494C216.672 123.473 219.366 121.451 221.387 122.125C223.407 122.125 225.428 124.82 224.754 126.842Z" fill="url(#paint20_linear_51_2)"/>
<path d="M233.509 124.82C233.509 124.82 231.489 128.189 229.468 127.516C227.448 126.842 226.101 125.494 226.774 123.473C226.774 121.451 228.795 120.104 230.815 120.778C232.836 120.778 234.183 122.799 233.509 124.82Z" fill="url(#paint21_linear_51_2)"/>
<path d="M240.917 124.147C240.917 124.147 239.571 126.842 237.55 126.168C236.203 126.168 234.856 124.82 235.53 122.799C235.53 121.451 236.877 120.104 238.897 120.778C240.244 120.778 241.591 122.125 240.917 124.147Z" fill="url(#paint22_linear_51_2)"/>
<path d="M248.999 124.147C248.999 124.147 247.652 126.842 245.632 126.168C244.285 126.168 242.938 124.82 243.611 122.799C243.611 121.451 244.958 120.104 246.979 120.778C248.326 120.778 249.673 122.125 248.999 124.147Z" fill="url(#paint23_linear_51_2)"/>
<path d="M256.407 124.147C256.407 124.147 255.06 126.168 253.714 126.168C252.367 126.168 251.693 124.82 251.693 123.473C251.693 122.125 253.04 121.451 254.387 121.451C255.734 121.451 256.407 122.799 256.407 124.147Z" fill="url(#paint24_linear_51_2)"/>
<path d="M262.469 124.147C262.469 124.147 261.122 126.168 260.448 125.494C259.101 125.494 258.428 124.147 259.101 123.473C259.101 122.125 260.448 121.451 261.122 122.125C262.469 122.125 263.142 123.473 262.469 124.147Z" fill="url(#paint25_linear_51_2)"/>
<path d="M266.51 124.82C266.51 124.82 265.836 126.168 264.489 126.168C263.816 126.168 263.142 125.494 263.142 124.147C263.142 123.473 263.816 122.799 265.163 122.799C265.836 122.799 266.51 123.473 266.51 124.82Z" fill="url(#paint26_linear_51_2)"/>
<path d="M270.55 125.494C270.55 125.494 269.877 126.842 269.204 126.842C268.53 126.842 267.857 126.168 267.857 125.494C267.857 124.82 268.53 124.147 269.204 124.147C269.877 124.147 270.55 124.82 270.55 125.494Z" fill="url(#paint27_linear_51_2)"/>
<path d="M273.918 126.168C273.918 126.168 273.918 126.842 272.571 126.842C272.571 126.842 271.897 126.842 271.897 125.494C271.897 125.494 271.897 124.82 273.244 124.82C274.591 124.82 273.918 124.82 273.918 126.168Z" fill="url(#paint28_linear_51_2)"/>
<path d="M275.938 125.494C275.938 125.494 275.938 125.494 275.938 126.842C275.938 126.842 275.938 126.842 274.591 126.842C273.244 126.842 274.591 126.842 274.591 125.494C274.591 125.494 274.591 125.494 275.938 125.494Z" fill="url(#paint29_linear_51_2)"/>
<path d="M277.959 126.168C277.959 126.168 277.959 126.168 277.959 126.842C277.959 127.516 277.959 126.842 277.285 126.842C277.285 126.842 277.285 126.842 277.285 126.168C277.285 126.168 277.285 126.168 277.959 126.168Z" fill="url(#paint30_linear_51_2)"/>
<path d="M279.306 126.168L279.979 126.842L279.306 127.516V126.842V126.168Z" fill="url(#paint31_linear_51_2)"/>
<path d="M159.427 37.9009C159.427 37.9009 154.712 61.4837 137.202 74.2858C123.059 84.3927 112.957 79.0023 109.589 76.3072C108.916 75.6334 108.242 74.9595 108.242 74.9595C108.242 74.9595 108.242 74.9595 108.242 73.6119C123.732 59.4623 141.243 48.0078 159.427 37.9009Z" fill="#FF0000"/>
<path d="M214.652 278.445C214.652 306.071 195.121 331.001 169.529 339.761C143.937 347.846 116.998 343.13 92.7525 334.37C68.5073 324.264 48.9765 304.05 38.2008 280.467C31.4661 266.317 27.4252 251.494 25.4048 235.996C25.4048 234.649 25.4048 232.627 25.4048 231.28C25.4048 221.173 25.4048 211.74 26.7517 201.633C26.7517 201.633 26.7517 200.959 26.7517 200.285C30.1191 176.703 39.5478 153.793 53.6908 134.253C69.1808 112.018 87.3647 91.1306 108.242 73.6119C123.732 59.4623 141.243 48.0078 159.427 37.9009C161.447 36.5533 163.468 35.8795 164.815 34.5319C162.794 35.2057 161.447 36.5533 160.1 37.9009C141.916 48.6816 125.079 61.4837 110.263 76.3072C90.7321 94.4996 73.2217 115.387 58.4052 137.622C46.9561 154.467 38.8743 174.007 35.5069 193.547C33.4865 205.676 32.813 217.804 33.4865 229.258C33.4865 230.606 33.4865 231.954 33.4865 233.301C34.8335 248.125 38.8743 263.622 45.6091 277.098C55.7112 299.333 73.8951 316.852 96.1199 326.285C118.345 334.37 144.61 337.739 166.835 331.001C189.06 324.263 205.897 302.028 205.897 279.119C205.897 267.665 199.835 256.884 190.407 250.146C181.652 243.408 170.202 240.039 158.753 239.365C158.753 239.365 158.753 241.387 160.774 242.734C162.794 245.43 166.162 248.125 169.529 250.82C170.202 251.494 171.549 252.168 172.223 253.515C172.223 253.515 174.243 255.536 172.896 258.232C172.223 260.253 170.202 261.601 170.202 261.601C170.202 261.601 168.855 261.601 168.182 261.601H162.794C162.794 261.601 166.162 262.948 167.509 263.622C172.223 266.317 175.59 271.034 177.611 275.75C179.631 280.467 180.305 286.531 178.958 291.921C177.611 297.312 174.243 302.028 170.202 305.397C162.121 312.135 153.366 316.178 143.263 317.526C133.161 318.873 123.059 315.504 114.977 310.114C98.8138 297.312 94.7729 275.75 97.4669 256.884C101.508 238.018 110.263 221.173 121.712 206.349C110.936 221.847 102.181 238.692 99.4873 256.884C96.7934 275.076 102.855 295.29 116.998 305.397C124.406 310.788 133.161 312.809 141.916 311.461C150.672 310.114 158.753 306.071 165.488 300.007C171.549 293.943 174.243 285.857 170.876 278.445C167.509 270.36 159.427 266.317 152.692 268.339C152.692 268.339 148.651 268.339 147.978 266.317V264.97C147.978 262.274 149.325 258.905 152.692 256.884C154.712 254.863 158.08 254.863 160.1 254.189C158.08 252.167 155.386 250.146 153.365 247.451C152.019 245.43 149.998 243.408 149.998 239.365C149.998 234.649 154.039 231.954 156.733 230.606H157.406C170.876 230.606 184.345 234.649 195.121 243.408C205.897 251.494 213.305 264.97 213.978 278.445H214.652Z" fill="url(#paint32_linear_51_2)"/>
</g>
<defs>
<linearGradient id="paint0_linear_51_2" x1="235.53" y1="-118.419" x2="21.1827" y2="514.212" gradientUnits="userSpaceOnUse">
<stop stop-color="#FF6D80"/>
<stop offset="0.08" stop-color="#FE687A"/>
<stop offset="0.18" stop-color="#FD5C6B"/>
<stop offset="0.28" stop-color="#FB4953"/>
<stop offset="0.39" stop-color="#F92D31"/>
<stop offset="0.48" stop-color="#F71411"/>
<stop offset="0.53" stop-color="#EC1310"/>
<stop offset="0.61" stop-color="#D1110E"/>
<stop offset="0.72" stop-color="#A40D0B"/>
<stop offset="0.84" stop-color="#670808"/>
<stop offset="0.99" stop-color="#190203"/>
<stop offset="1" stop-color="#110203"/>
</linearGradient>
<linearGradient id="paint1_linear_51_2" x1="253.714" y1="-111.681" x2="39.367" y2="520.95" gradientUnits="userSpaceOnUse">
<stop stop-color="#FF6D80"/>
<stop offset="0.08" stop-color="#FE687A"/>
<stop offset="0.18" stop-color="#FD5C6B"/>
<stop offset="0.28" stop-color="#FB4953"/>
<stop offset="0.39" stop-color="#F92D31"/>
<stop offset="0.48" stop-color="#F71411"/>
<stop offset="0.53" stop-color="#EC1310"/>
<stop offset="0.61" stop-color="#D1110E"/>
<stop offset="0.72" stop-color="#A40D0B"/>
<stop offset="0.84" stop-color="#670808"/>
<stop offset="0.99" stop-color="#190203"/>
<stop offset="1" stop-color="#110203"/>
</linearGradient>
<linearGradient id="paint2_linear_51_2" x1="277.285" y1="-104.27" x2="62.9384" y2="528.362" gradientUnits="userSpaceOnUse">
<stop stop-color="#FF6D80"/>
<stop offset="0.08" stop-color="#FE687A"/>
<stop offset="0.18" stop-color="#FD5C6B"/>
<stop offset="0.28" stop-color="#FB4953"/>
<stop offset="0.39" stop-color="#F92D31"/>
<stop offset="0.48" stop-color="#F71411"/>
<stop offset="0.53" stop-color="#EC1310"/>
<stop offset="0.61" stop-color="#D1110E"/>
<stop offset="0.72" stop-color="#A40D0B"/>
<stop offset="0.84" stop-color="#670808"/>
<stop offset="0.99" stop-color="#190203"/>
<stop offset="1" stop-color="#110203"/>
</linearGradient>
<linearGradient id="paint3_linear_51_2" x1="294.122" y1="-98.2057" x2="79.7757" y2="534.427" gradientUnits="userSpaceOnUse">
<stop stop-color="#FF6D80"/>
<stop offset="0.08" stop-color="#FE687A"/>
<stop offset="0.18" stop-color="#FD5C6B"/>
<stop offset="0.28" stop-color="#FB4953"/>
<stop offset="0.39" stop-color="#F92D31"/>
<stop offset="0.48" stop-color="#F71411"/>
<stop offset="0.53" stop-color="#EC1310"/>
<stop offset="0.61" stop-color="#D1110E"/>
<stop offset="0.72" stop-color="#A40D0B"/>
<stop offset="0.84" stop-color="#670808"/>
<stop offset="0.99" stop-color="#190203"/>
<stop offset="1" stop-color="#110203"/>
</linearGradient>
<linearGradient id="paint4_linear_51_2" x1="209.937" y1="-127.179" x2="-5.08341" y2="505.453" gradientUnits="userSpaceOnUse">
<stop stop-color="#FF6D80"/>
<stop offset="0.08" stop-color="#FE687A"/>
<stop offset="0.18" stop-color="#FD5C6B"/>
<stop offset="0.28" stop-color="#FB4953"/>
<stop offset="0.39" stop-color="#F92D31"/>
<stop offset="0.48" stop-color="#F71411"/>
<stop offset="0.53" stop-color="#EC1310"/>
<stop offset="0.61" stop-color="#D1110E"/>
<stop offset="0.72" stop-color="#A40D0B"/>
<stop offset="0.84" stop-color="#670808"/>
<stop offset="0.99" stop-color="#190203"/>
<stop offset="1" stop-color="#110203"/>
</linearGradient>
<linearGradient id="paint5_linear_51_2" x1="208.591" y1="-127.179" x2="-5.7561" y2="505.453" gradientUnits="userSpaceOnUse">
<stop stop-color="#FF6D80"/>
<stop offset="0.08" stop-color="#FE687A"/>
<stop offset="0.18" stop-color="#FD5C6B"/>
<stop offset="0.28" stop-color="#FB4953"/>
<stop offset="0.39" stop-color="#F92D31"/>
<stop offset="0.48" stop-color="#F71411"/>
<stop offset="0.53" stop-color="#EC1310"/>
<stop offset="0.61" stop-color="#D1110E"/>
<stop offset="0.72" stop-color="#A40D0B"/>
<stop offset="0.84" stop-color="#670808"/>
<stop offset="0.99" stop-color="#190203"/>
<stop offset="1" stop-color="#110203"/>
</linearGradient>
<linearGradient id="paint6_linear_51_2" x1="199.162" y1="-130.548" x2="-15.184" y2="502.084" gradientUnits="userSpaceOnUse">
<stop stop-color="#FF6D80"/>
<stop offset="0.08" stop-color="#FE687A"/>
<stop offset="0.18" stop-color="#FD5C6B"/>
<stop offset="0.28" stop-color="#FB4953"/>
<stop offset="0.39" stop-color="#F92D31"/>
<stop offset="0.48" stop-color="#F71411"/>
<stop offset="0.53" stop-color="#EC1310"/>
<stop offset="0.61" stop-color="#D1110E"/>
<stop offset="0.72" stop-color="#A40D0B"/>
<stop offset="0.84" stop-color="#670808"/>
<stop offset="0.99" stop-color="#190203"/>
<stop offset="1" stop-color="#110203"/>
</linearGradient>
<linearGradient id="paint7_linear_51_2" x1="201.856" y1="-129.2" x2="-12.49" y2="502.757" gradientUnits="userSpaceOnUse">
<stop stop-color="#FF6D80"/>
<stop offset="0.08" stop-color="#FE687A"/>
<stop offset="0.18" stop-color="#FD5C6B"/>
<stop offset="0.28" stop-color="#FB4953"/>
<stop offset="0.39" stop-color="#F92D31"/>
<stop offset="0.48" stop-color="#F71411"/>
<stop offset="0.53" stop-color="#EC1310"/>
<stop offset="0.61" stop-color="#D1110E"/>
<stop offset="0.72" stop-color="#A40D0B"/>
<stop offset="0.84" stop-color="#670808"/>
<stop offset="0.99" stop-color="#190203"/>
<stop offset="1" stop-color="#110203"/>
</linearGradient>
<linearGradient id="paint8_linear_51_2" x1="147.978" y1="-148.066" x2="-66.3691" y2="484.565" gradientUnits="userSpaceOnUse">
<stop stop-color="#FF6D80"/>
<stop offset="0.08" stop-color="#FE687A"/>
<stop offset="0.18" stop-color="#FD5C6B"/>
<stop offset="0.28" stop-color="#FB4953"/>
<stop offset="0.39" stop-color="#F92D31"/>
<stop offset="0.48" stop-color="#F71411"/>
<stop offset="0.53" stop-color="#EC1310"/>
<stop offset="0.61" stop-color="#D1110E"/>
<stop offset="0.72" stop-color="#A40D0B"/>
<stop offset="0.84" stop-color="#670808"/>
<stop offset="0.99" stop-color="#190203"/>
<stop offset="1" stop-color="#110203"/>
</linearGradient>
<linearGradient id="paint9_linear_51_2" x1="244.285" y1="-115.05" x2="29.9385" y2="517.581" gradientUnits="userSpaceOnUse">
<stop stop-color="#FF6D80"/>
<stop offset="0.08" stop-color="#FE687A"/>
<stop offset="0.18" stop-color="#FD5C6B"/>
<stop offset="0.28" stop-color="#FB4953"/>
<stop offset="0.39" stop-color="#F92D31"/>
<stop offset="0.48" stop-color="#F71411"/>
<stop offset="0.53" stop-color="#EC1310"/>
<stop offset="0.61" stop-color="#D1110E"/>
<stop offset="0.72" stop-color="#A40D0B"/>
<stop offset="0.84" stop-color="#670808"/>
<stop offset="0.99" stop-color="#190203"/>
<stop offset="1" stop-color="#110203"/>
</linearGradient>
<linearGradient id="paint10_linear_51_2" x1="307.592" y1="-93.4892" x2="93.2448" y2="539.143" gradientUnits="userSpaceOnUse">
<stop stop-color="#FF6D80"/>
<stop offset="0.08" stop-color="#FE687A"/>
<stop offset="0.18" stop-color="#FD5C6B"/>
<stop offset="0.28" stop-color="#FB4953"/>
<stop offset="0.39" stop-color="#F92D31"/>
<stop offset="0.48" stop-color="#F71411"/>
<stop offset="0.53" stop-color="#EC1310"/>
<stop offset="0.61" stop-color="#D1110E"/>
<stop offset="0.72" stop-color="#A40D0B"/>
<stop offset="0.84" stop-color="#670808"/>
<stop offset="0.99" stop-color="#190203"/>
<stop offset="1" stop-color="#110203"/>
</linearGradient>
<linearGradient id="paint11_linear_51_2" x1="362.817" y1="-75.2966" x2="147.796" y2="557.335" gradientUnits="userSpaceOnUse">
<stop stop-color="#FF6D80"/>
<stop offset="0.08" stop-color="#FE687A"/>
<stop offset="0.18" stop-color="#FD5C6B"/>
<stop offset="0.28" stop-color="#FB4953"/>
<stop offset="0.39" stop-color="#F92D31"/>
<stop offset="0.48" stop-color="#F71411"/>
<stop offset="0.53" stop-color="#EC1310"/>
<stop offset="0.61" stop-color="#D1110E"/>
<stop offset="0.72" stop-color="#A40D0B"/>
<stop offset="0.84" stop-color="#670808"/>
<stop offset="0.99" stop-color="#190203"/>
<stop offset="1" stop-color="#110203"/>
</linearGradient>
<linearGradient id="paint12_linear_51_2" x1="300.857" y1="-96.1843" x2="86.5101" y2="536.447" gradientUnits="userSpaceOnUse">
<stop stop-color="#FF6D80"/>
<stop offset="0.08" stop-color="#FE687A"/>
<stop offset="0.18" stop-color="#FD5C6B"/>
<stop offset="0.28" stop-color="#FB4953"/>
<stop offset="0.39" stop-color="#F92D31"/>
<stop offset="0.48" stop-color="#F71411"/>
<stop offset="0.53" stop-color="#EC1310"/>
<stop offset="0.61" stop-color="#D1110E"/>
<stop offset="0.72" stop-color="#A40D0B"/>
<stop offset="0.84" stop-color="#670808"/>
<stop offset="0.99" stop-color="#190203"/>
<stop offset="1" stop-color="#110203"/>
</linearGradient>
<linearGradient id="paint13_linear_51_2" x1="234.183" y1="-118.42" x2="19.8357" y2="514.212" gradientUnits="userSpaceOnUse">
<stop stop-color="#FF6D80"/>
<stop offset="0.08" stop-color="#FE687A"/>
<stop offset="0.18" stop-color="#FD5C6B"/>
<stop offset="0.28" stop-color="#FB4953"/>
<stop offset="0.39" stop-color="#F92D31"/>
<stop offset="0.48" stop-color="#F71411"/>
<stop offset="0.53" stop-color="#EC1310"/>
<stop offset="0.61" stop-color="#D1110E"/>
<stop offset="0.72" stop-color="#A40D0B"/>
<stop offset="0.84" stop-color="#670808"/>
<stop offset="0.99" stop-color="#190203"/>
<stop offset="1" stop-color="#110203"/>
</linearGradient>
<linearGradient id="paint14_linear_51_2" x1="214.652" y1="-125.158" x2="0.304865" y2="507.474" gradientUnits="userSpaceOnUse">
<stop stop-color="#FF6D80"/>
<stop offset="0.08" stop-color="#FE687A"/>
<stop offset="0.18" stop-color="#FD5C6B"/>
<stop offset="0.28" stop-color="#FB4953"/>
<stop offset="0.39" stop-color="#F92D31"/>
<stop offset="0.48" stop-color="#F71411"/>
<stop offset="0.53" stop-color="#EC1310"/>
<stop offset="0.61" stop-color="#D1110E"/>
<stop offset="0.72" stop-color="#A40D0B"/>
<stop offset="0.84" stop-color="#670808"/>
<stop offset="0.99" stop-color="#190203"/>
<stop offset="1" stop-color="#110203"/>
</linearGradient>
<linearGradient id="paint15_linear_51_2" x1="304.898" y1="-94.8368" x2="90.5508" y2="537.795" gradientUnits="userSpaceOnUse">
<stop stop-color="#FF6D80"/>
<stop offset="0.08" stop-color="#FE687A"/>
<stop offset="0.18" stop-color="#FD5C6B"/>
<stop offset="0.28" stop-color="#FB4953"/>
<stop offset="0.39" stop-color="#F92D31"/>
<stop offset="0.48" stop-color="#F71411"/>
<stop offset="0.53" stop-color="#EC1310"/>
<stop offset="0.61" stop-color="#D1110E"/>
<stop offset="0.72" stop-color="#A40D0B"/>
<stop offset="0.84" stop-color="#670808"/>
<stop offset="0.99" stop-color="#190203"/>
<stop offset="1" stop-color="#110203"/>
</linearGradient>
<linearGradient id="paint16_linear_51_2" x1="158.753" y1="76.3071" x2="224.131" y2="216.433" gradientUnits="userSpaceOnUse">
<stop stop-color="#FF6D80"/>
<stop offset="0.08" stop-color="#FE687A"/>
<stop offset="0.18" stop-color="#FD5C6B"/>
<stop offset="0.28" stop-color="#FB4953"/>
<stop offset="0.39" stop-color="#F92D31"/>
<stop offset="0.48" stop-color="#F71411"/>
<stop offset="0.53" stop-color="#EC1310"/>
<stop offset="0.61" stop-color="#D1110E"/>
<stop offset="0.72" stop-color="#A40D0B"/>
<stop offset="0.84" stop-color="#670808"/>
<stop offset="0.99" stop-color="#190203"/>
<stop offset="1" stop-color="#110203"/>
</linearGradient>
<linearGradient id="paint17_linear_51_2" x1="146.631" y1="81.6975" x2="212.008" y2="222.497" gradientUnits="userSpaceOnUse">
<stop stop-color="#FF6D80"/>
<stop offset="0.08" stop-color="#FE687A"/>
<stop offset="0.18" stop-color="#FD5C6B"/>
<stop offset="0.28" stop-color="#FB4953"/>
<stop offset="0.39" stop-color="#F92D31"/>
<stop offset="0.48" stop-color="#F71411"/>
<stop offset="0.53" stop-color="#EC1310"/>
<stop offset="0.61" stop-color="#D1110E"/>
<stop offset="0.72" stop-color="#A40D0B"/>
<stop offset="0.84" stop-color="#670808"/>
<stop offset="0.99" stop-color="#190203"/>
<stop offset="1" stop-color="#110203"/>
</linearGradient>
<linearGradient id="paint18_linear_51_2" x1="170.202" y1="70.9168" x2="235.58" y2="211.043" gradientUnits="userSpaceOnUse">
<stop stop-color="#FF6D80"/>
<stop offset="0.08" stop-color="#FE687A"/>
<stop offset="0.18" stop-color="#FD5C6B"/>
<stop offset="0.28" stop-color="#FB4953"/>
<stop offset="0.39" stop-color="#F92D31"/>
<stop offset="0.48" stop-color="#F71411"/>
<stop offset="0.53" stop-color="#EC1310"/>
<stop offset="0.61" stop-color="#D1110E"/>
<stop offset="0.72" stop-color="#A40D0B"/>
<stop offset="0.84" stop-color="#670808"/>
<stop offset="0.99" stop-color="#190203"/>
<stop offset="1" stop-color="#110203"/>
</linearGradient>
<linearGradient id="paint19_linear_51_2" x1="180.304" y1="66.2" x2="245.683" y2="206.326" gradientUnits="userSpaceOnUse">
<stop stop-color="#FF6D80"/>
<stop offset="0.08" stop-color="#FE687A"/>
<stop offset="0.18" stop-color="#FD5C6B"/>
<stop offset="0.28" stop-color="#FB4953"/>
<stop offset="0.39" stop-color="#F92D31"/>
<stop offset="0.48" stop-color="#F71411"/>
<stop offset="0.53" stop-color="#EC1310"/>
<stop offset="0.61" stop-color="#D1110E"/>
<stop offset="0.72" stop-color="#A40D0B"/>
<stop offset="0.84" stop-color="#670808"/>
<stop offset="0.99" stop-color="#190203"/>
<stop offset="1" stop-color="#110203"/>
</linearGradient>
<linearGradient id="paint20_linear_51_2" x1="190.407" y1="61.4837" x2="255.785" y2="201.609" gradientUnits="userSpaceOnUse">
<stop stop-color="#FF6D80"/>
<stop offset="0.08" stop-color="#FE687A"/>
<stop offset="0.18" stop-color="#FD5C6B"/>
<stop offset="0.28" stop-color="#FB4953"/>
<stop offset="0.39" stop-color="#F92D31"/>
<stop offset="0.48" stop-color="#F71411"/>
<stop offset="0.53" stop-color="#EC1310"/>
<stop offset="0.61" stop-color="#D1110E"/>
<stop offset="0.72" stop-color="#A40D0B"/>
<stop offset="0.84" stop-color="#670808"/>
<stop offset="0.99" stop-color="#190203"/>
<stop offset="1" stop-color="#110203"/>
</linearGradient>
<linearGradient id="paint21_linear_51_2" x1="199.162" y1="57.441" x2="264.539" y2="197.567" gradientUnits="userSpaceOnUse">
<stop stop-color="#FF6D80"/>
<stop offset="0.08" stop-color="#FE687A"/>
<stop offset="0.18" stop-color="#FD5C6B"/>
<stop offset="0.28" stop-color="#FB4953"/>
<stop offset="0.39" stop-color="#F92D31"/>
<stop offset="0.48" stop-color="#F71411"/>
<stop offset="0.53" stop-color="#EC1310"/>
<stop offset="0.61" stop-color="#D1110E"/>
<stop offset="0.72" stop-color="#A40D0B"/>
<stop offset="0.84" stop-color="#670808"/>
<stop offset="0.99" stop-color="#190203"/>
<stop offset="1" stop-color="#110203"/>
</linearGradient>
<linearGradient id="paint22_linear_51_2" x1="205.897" y1="54.072" x2="271.274" y2="194.198" gradientUnits="userSpaceOnUse">
<stop stop-color="#FF6D80"/>
<stop offset="0.08" stop-color="#FE687A"/>
<stop offset="0.18" stop-color="#FD5C6B"/>
<stop offset="0.28" stop-color="#FB4953"/>
<stop offset="0.39" stop-color="#F92D31"/>
<stop offset="0.48" stop-color="#F71411"/>
<stop offset="0.53" stop-color="#EC1310"/>
<stop offset="0.61" stop-color="#D1110E"/>
<stop offset="0.72" stop-color="#A40D0B"/>
<stop offset="0.84" stop-color="#670808"/>
<stop offset="0.99" stop-color="#190203"/>
<stop offset="1" stop-color="#110203"/>
</linearGradient>
<linearGradient id="paint23_linear_51_2" x1="212.631" y1="50.703" x2="278.009" y2="191.502" gradientUnits="userSpaceOnUse">
<stop stop-color="#FF6D80"/>
<stop offset="0.08" stop-color="#FE687A"/>
<stop offset="0.18" stop-color="#FD5C6B"/>
<stop offset="0.28" stop-color="#FB4953"/>
<stop offset="0.39" stop-color="#F92D31"/>
<stop offset="0.48" stop-color="#F71411"/>
<stop offset="0.53" stop-color="#EC1310"/>
<stop offset="0.61" stop-color="#D1110E"/>
<stop offset="0.72" stop-color="#A40D0B"/>
<stop offset="0.84" stop-color="#670808"/>
<stop offset="0.99" stop-color="#190203"/>
<stop offset="1" stop-color="#110203"/>
</linearGradient>
<linearGradient id="paint24_linear_51_2" x1="218.693" y1="48.0076" x2="284.071" y2="188.807" gradientUnits="userSpaceOnUse">
<stop stop-color="#FF6D80"/>
<stop offset="0.08" stop-color="#FE687A"/>
<stop offset="0.18" stop-color="#FD5C6B"/>
<stop offset="0.28" stop-color="#FB4953"/>
<stop offset="0.39" stop-color="#F92D31"/>
<stop offset="0.48" stop-color="#F71411"/>
<stop offset="0.53" stop-color="#EC1310"/>
<stop offset="0.61" stop-color="#D1110E"/>
<stop offset="0.72" stop-color="#A40D0B"/>
<stop offset="0.84" stop-color="#670808"/>
<stop offset="0.99" stop-color="#190203"/>
<stop offset="1" stop-color="#110203"/>
</linearGradient>
<linearGradient id="paint25_linear_51_2" x1="224.08" y1="45.9868" x2="289.458" y2="186.112" gradientUnits="userSpaceOnUse">
<stop stop-color="#FF6D80"/>
<stop offset="0.08" stop-color="#FE687A"/>
<stop offset="0.18" stop-color="#FD5C6B"/>
<stop offset="0.28" stop-color="#FB4953"/>
<stop offset="0.39" stop-color="#F92D31"/>
<stop offset="0.48" stop-color="#F71411"/>
<stop offset="0.53" stop-color="#EC1310"/>
<stop offset="0.61" stop-color="#D1110E"/>
<stop offset="0.72" stop-color="#A40D0B"/>
<stop offset="0.84" stop-color="#670808"/>
<stop offset="0.99" stop-color="#190203"/>
<stop offset="1" stop-color="#110203"/>
</linearGradient>
<linearGradient id="paint26_linear_51_2" x1="227.448" y1="43.9647" x2="293.5" y2="184.091" gradientUnits="userSpaceOnUse">
<stop stop-color="#FF6D80"/>
<stop offset="0.08" stop-color="#FE687A"/>
<stop offset="0.18" stop-color="#FD5C6B"/>
<stop offset="0.28" stop-color="#FB4953"/>
<stop offset="0.39" stop-color="#F92D31"/>
<stop offset="0.48" stop-color="#F71411"/>
<stop offset="0.53" stop-color="#EC1310"/>
<stop offset="0.61" stop-color="#D1110E"/>
<stop offset="0.72" stop-color="#A40D0B"/>
<stop offset="0.84" stop-color="#670808"/>
<stop offset="0.99" stop-color="#190203"/>
<stop offset="1" stop-color="#110203"/>
</linearGradient>
<linearGradient id="paint27_linear_51_2" x1="230.815" y1="42.6165" x2="296.194" y2="182.743" gradientUnits="userSpaceOnUse">
<stop stop-color="#FF6D80"/>
<stop offset="0.08" stop-color="#FE687A"/>
<stop offset="0.18" stop-color="#FD5C6B"/>
<stop offset="0.28" stop-color="#FB4953"/>
<stop offset="0.39" stop-color="#F92D31"/>
<stop offset="0.48" stop-color="#F71411"/>
<stop offset="0.53" stop-color="#EC1310"/>
<stop offset="0.61" stop-color="#D1110E"/>
<stop offset="0.72" stop-color="#A40D0B"/>
<stop offset="0.84" stop-color="#670808"/>
<stop offset="0.99" stop-color="#190203"/>
<stop offset="1" stop-color="#110203"/>
</linearGradient>
<linearGradient id="paint28_linear_51_2" x1="233.51" y1="41.2692" x2="298.889" y2="181.395" gradientUnits="userSpaceOnUse">
<stop stop-color="#FF6D80"/>
<stop offset="0.08" stop-color="#FE687A"/>
<stop offset="0.18" stop-color="#FD5C6B"/>
<stop offset="0.28" stop-color="#FB4953"/>
<stop offset="0.39" stop-color="#F92D31"/>
<stop offset="0.48" stop-color="#F71411"/>
<stop offset="0.53" stop-color="#EC1310"/>
<stop offset="0.61" stop-color="#D1110E"/>
<stop offset="0.72" stop-color="#A40D0B"/>
<stop offset="0.84" stop-color="#670808"/>
<stop offset="0.99" stop-color="#190203"/>
<stop offset="1" stop-color="#110203"/>
</linearGradient>
<linearGradient id="paint29_linear_51_2" x1="235.53" y1="39.9203" x2="300.911" y2="180.721" gradientUnits="userSpaceOnUse">
<stop stop-color="#FF6D80"/>
<stop offset="0.08" stop-color="#FE687A"/>
<stop offset="0.18" stop-color="#FD5C6B"/>
<stop offset="0.28" stop-color="#FB4953"/>
<stop offset="0.39" stop-color="#F92D31"/>
<stop offset="0.48" stop-color="#F71411"/>
<stop offset="0.53" stop-color="#EC1310"/>
<stop offset="0.61" stop-color="#D1110E"/>
<stop offset="0.72" stop-color="#A40D0B"/>
<stop offset="0.84" stop-color="#670808"/>
<stop offset="0.99" stop-color="#190203"/>
<stop offset="1" stop-color="#110203"/>
</linearGradient>
<linearGradient id="paint30_linear_51_2" x1="237.549" y1="39.2471" x2="302.928" y2="180.049" gradientUnits="userSpaceOnUse">
<stop stop-color="#FF6D80"/>
<stop offset="0.08" stop-color="#FE687A"/>
<stop offset="0.18" stop-color="#FD5C6B"/>
<stop offset="0.28" stop-color="#FB4953"/>
<stop offset="0.39" stop-color="#F92D31"/>
<stop offset="0.48" stop-color="#F71411"/>
<stop offset="0.53" stop-color="#EC1310"/>
<stop offset="0.61" stop-color="#D1110E"/>
<stop offset="0.72" stop-color="#A40D0B"/>
<stop offset="0.84" stop-color="#670808"/>
<stop offset="0.99" stop-color="#190203"/>
<stop offset="1" stop-color="#110203"/>
</linearGradient>
<linearGradient id="paint31_linear_51_2" x1="238.896" y1="39.2485" x2="303.599" y2="179.376" gradientUnits="userSpaceOnUse">
<stop stop-color="#FF6D80"/>
<stop offset="0.08" stop-color="#FE687A"/>
<stop offset="0.18" stop-color="#FD5C6B"/>
<stop offset="0.28" stop-color="#FB4953"/>
<stop offset="0.39" stop-color="#F92D31"/>
<stop offset="0.48" stop-color="#F71411"/>
<stop offset="0.53" stop-color="#EC1310"/>
<stop offset="0.61" stop-color="#D1110E"/>
<stop offset="0.72" stop-color="#A40D0B"/>
<stop offset="0.84" stop-color="#670808"/>
<stop offset="0.99" stop-color="#190203"/>
<stop offset="1" stop-color="#110203"/>
</linearGradient>
<linearGradient id="paint32_linear_51_2" x1="241.591" y1="-116.398" x2="27.2442" y2="516.234" gradientUnits="userSpaceOnUse">
<stop stop-color="#FF6D80"/>
<stop offset="0.08" stop-color="#FE687A"/>
<stop offset="0.18" stop-color="#FD5C6B"/>
<stop offset="0.28" stop-color="#FB4953"/>
<stop offset="0.39" stop-color="#F92D31"/>
<stop offset="0.48" stop-color="#F71411"/>
<stop offset="0.53" stop-color="#EC1310"/>
<stop offset="0.61" stop-color="#D1110E"/>
<stop offset="0.72" stop-color="#A40D0B"/>
<stop offset="0.84" stop-color="#670808"/>
<stop offset="0.99" stop-color="#190203"/>
<stop offset="1" stop-color="#110203"/>
</linearGradient>
</defs>
</svg>
