<svg width="1920" height="486" viewBox="0 0 1920 486" fill="none" xmlns="http://www.w3.org/2000/svg">
<path d="M5.54039e-05 435.873C-0.0488096 424.941 31.8252 269.77 109.925 149.825C180.005 42.3213 309.427 -4.17985 434.424 102.032C568.349 215.857 695.084 245.999 802.762 237.016C909.05 228.033 989.726 161.421 1028.38 116.834C1112.19 20.5272 1198.95 102.975 1141.38 238.385C1114.37 301.337 1068.66 312.639 993.573 307.239C915.082 301.595 803.341 267.632 639.825 272.271C482.109 276.86 298.356 320.071 186.644 395.24C67.741 475.319 -0.209366 531.153 5.54039e-05 435.873Z" fill="#FEAE46"/>
<path d="M1918.21 367.201C1917.54 364.719 1906.88 346.106 1888.47 318.109C1868.34 287.464 1841.56 242.491 1804.59 207.767C1790.53 194.604 1773.86 187.616 1761.01 195.008C1747.08 203.053 1737.59 223.807 1723.94 244.715C1712.31 262.529 1693.59 276.356 1674.55 273.296C1651.82 269.611 1630.28 253.612 1609.45 254.11C1566.48 255.305 1546.58 325.429 1517.56 373.163C1504.79 394.142 1487.53 407.815 1469.57 409.07C1450.6 410.336 1430.96 401.793 1411.45 393.415C1205.01 304.249 1217.81 557.407 1308.91 465.615C1328.58 445.767 1351.26 413.968 1387.19 412.081C1425.77 410.107 1479.8 436.363 1518.45 403.359C1539.67 385.244 1557.82 360.475 1582.74 353.342C1607.6 346.241 1636.73 358.783 1665.41 369.703C1692.7 380.114 1719.08 384.394 1741.11 380.706C1762.69 377.084 1782.14 370.564 1800.03 371.935C1841.14 375.081 1873.74 393.682 1894.7 395.314C1915.29 396.861 1924.09 388.869 1918.21 367.201Z" fill="#244D62"/>
<path d="M1369.06 230.337C1364.84 230.337 1361.41 226.914 1361.41 222.708C1361.41 218.503 1364.84 215.077 1369.06 215.077C1373.27 215.077 1376.7 218.5 1376.7 222.708C1376.7 226.916 1373.27 230.337 1369.06 230.337ZM1369.06 217.152C1365.99 217.152 1363.49 219.642 1363.49 222.706C1363.49 225.769 1365.99 228.259 1369.06 228.259C1372.12 228.259 1374.62 225.769 1374.62 222.706C1374.62 219.642 1372.13 217.152 1369.06 217.152Z" fill="#141515"/>
<path d="M1426.95 357.401C1406.82 357.401 1387.55 350.042 1372.55 336.603C1357.32 322.955 1347.85 304.282 1345.87 284.023C1345.77 282.812 1345.69 281.8 1345.63 280.828C1345.6 280.256 1346.03 279.766 1346.61 279.73C1347.17 279.694 1347.67 280.132 1347.71 280.704C1347.76 281.654 1347.84 282.647 1347.94 283.828C1351.86 324.138 1386.46 355.323 1426.97 355.323C1427.38 355.323 1427.79 355.32 1428.2 355.312C1471.96 354.627 1507.01 318.538 1506.34 274.861C1506.01 253.703 1497.44 233.94 1482.22 219.21C1466.99 204.481 1446.94 196.549 1425.72 196.882H1425.71C1425.14 196.882 1424.68 196.428 1424.67 195.861C1424.66 195.289 1425.12 194.815 1425.69 194.807C1447.45 194.469 1468.04 202.604 1483.67 217.721C1499.29 232.836 1508.08 253.119 1508.42 274.831C1508.75 296.545 1500.6 317.093 1485.45 332.684C1470.31 348.275 1449.99 357.049 1428.23 357.39C1427.81 357.395 1427.38 357.401 1426.95 357.401Z" fill="#141515"/>
<path d="M1488.28 454.777C1488.16 454.777 1488.03 454.755 1487.92 454.711C1454.11 442.095 1418.86 436.847 1383.12 439.109C1382.56 439.148 1382.06 438.71 1382.02 438.138C1381.99 437.565 1382.42 437.072 1382.99 437.037C1419.02 434.755 1454.56 440.048 1488.64 452.765C1489.18 452.966 1489.45 453.563 1489.25 454.1C1489.09 454.518 1488.7 454.774 1488.28 454.774V454.777Z" fill="#141515"/>
<path d="M1434.8 388.379L1434.85 388.398L1434.9 388.42L1434.95 388.431L1435 388.45L1435.05 388.461H1435.1L1435.15 388.472H1435.26L1435.31 388.461H1435.35L1435.4 388.45L1435.46 388.442L1435.5 388.431L1435.55 388.409L1435.6 388.398L1435.64 388.379L1435.68 388.357L1435.74 388.327L1435.78 388.307L1435.82 388.274L1435.86 388.244L1435.89 388.214L1435.94 388.181L1436.01 388.109L1436.07 388.027L1436.09 387.985L1436.12 387.944L1436.14 387.892L1436.17 387.839L1436.18 387.798L1436.21 387.746L1436.22 387.694L1436.25 387.589V387.539L1436.26 387.487V387.394L1436.25 387.341V387.289L1436.24 387.237L1436.22 387.195L1436.21 387.143L1436.19 387.091L1436.18 387.05L1436.16 386.997L1436.14 386.956L1436.11 386.915L1436.09 386.873L1436.06 386.832L1436.03 386.791L1436 386.75L1435.97 386.717L1435.94 386.675L1435.89 386.645L1435.85 386.615L1435.81 386.582L1435.73 386.521L1435.62 386.477L1434.8 388.379Z" fill="#141515"/>
<path d="M1114.69 308C1114.35 308 1114.01 308 1113.67 307.997C1113.04 307.991 1112.53 307.477 1112.54 306.847C1112.55 306.221 1113.05 305.715 1113.68 305.715H1113.69C1115.06 305.728 1116.44 305.715 1117.77 305.682C1171.2 304.2 1215.3 261.147 1218.16 207.668C1219.63 180.042 1210.26 153.493 1191.78 132.914C1173.3 112.335 1147.92 100.189 1120.3 98.7159C1092.69 97.2393 1066.16 106.604 1045.59 125.098C1025.03 143.59 1012.89 168.989 1011.41 196.618C1011.38 197.247 1010.84 197.731 1010.21 197.698C1009.59 197.665 1009.1 197.126 1009.14 196.497C1010.64 168.259 1023.05 142.3 1044.07 123.401C1065.09 104.501 1092.2 94.9245 1120.42 96.4374C1148.64 97.9443 1174.58 110.356 1193.47 131.389C1212.36 152.422 1221.94 179.555 1220.43 207.792C1219.01 234.52 1207.65 259.492 1188.47 278.113C1169.39 296.632 1144.3 307.234 1117.83 307.967C1116.8 307.994 1115.75 308.006 1114.69 308.006L1114.69 308Z" fill="#141515"/>
<path d="M1267.92 268.86L1267.9 268.918L1267.89 268.975L1267.87 269.03L1267.85 269.078L1267.85 269.133L1267.83 269.19V269.248L1267.82 269.305V269.417L1267.83 269.466L1267.85 269.52L1267.85 269.581L1267.87 269.635L1267.88 269.68L1267.9 269.738L1267.91 269.783L1267.94 269.841L1267.97 269.886L1267.99 269.932L1268.03 269.977L1268.05 270.022L1268.08 270.068L1268.13 270.116L1268.2 270.183L1268.24 270.228L1268.29 270.264L1268.33 270.286L1268.39 270.322L1268.44 270.355L1268.49 270.379L1268.54 270.401L1268.59 270.425L1268.65 270.434L1268.82 270.47L1268.87 270.479H1269.04L1269.1 270.47H1269.16L1269.2 270.458L1269.26 270.446L1269.31 270.425L1269.36 270.413L1269.42 270.388L1269.46 270.367L1269.51 270.343L1269.56 270.31L1269.6 270.286L1269.69 270.219L1269.74 270.183L1269.77 270.137L1269.82 270.104L1269.85 270.059L1269.92 269.968L1269.94 269.922L1269.98 269.865L1270 269.82L1267.92 268.86Z" fill="#141515"/>
<path d="M1252.07 103.028L1252.4 103.485L1252.82 104.078L1253.23 104.662L1253.65 105.255L1254.47 106.441L1254.67 106.737L1256.56 105.461L1256.36 105.164L1255.93 104.559L1255.52 103.954L1255.1 103.348L1254.68 102.755L1254.26 102.15L1253.93 101.693L1252.07 103.028Z" fill="#141515"/>
<path d="M1253.93 101.693L1253.89 101.648L1253.85 101.603L1253.81 101.566L1253.73 101.488L1253.69 101.454L1253.64 101.418L1253.6 101.385L1253.54 101.361L1253.45 101.318L1253.39 101.294L1253.34 101.27L1253.29 101.261L1253.23 101.249L1253.18 101.236L1253.13 101.224H1252.86L1252.74 101.249L1252.69 101.261L1252.64 101.282L1252.58 101.294L1252.53 101.318L1252.48 101.339L1252.43 101.373L1252.37 101.397L1252.28 101.463L1252.24 101.509L1252.19 101.545L1252.16 101.59L1252.12 101.624L1252.09 101.669L1252.06 101.718L1252.02 101.763L1252 101.82L1251.97 101.866L1251.94 101.911L1251.93 101.966L1251.91 102.014L1251.9 102.069L1251.88 102.126L1251.87 102.174L1251.86 102.229V102.286L1251.85 102.344V102.389L1251.86 102.447V102.504L1251.87 102.562L1251.88 102.619L1251.9 102.665L1251.91 102.719L1251.93 102.777L1251.95 102.822L1251.98 102.879L1252.01 102.925L1252.03 102.982L1252.07 103.028L1253.93 101.693Z" fill="#141515"/>
<path d="M1177.02 10.8417C1176.89 10.8417 1176.76 10.8205 1176.64 10.7751C1174.76 10.1003 1172.7 9.66159 1170.71 9.23495C1169.34 8.93841 1167.92 8.6328 1166.57 8.25457C1146.83 2.64461 1126.65 1.08023 1101.16 3.18019C1100.52 3.23163 1099.98 2.76564 1099.93 2.13626C1099.87 1.50688 1100.34 0.956173 1100.97 0.904733C1126.75 -1.21943 1147.17 0.369155 1167.19 6.05779C1168.47 6.41786 1169.79 6.70229 1171.19 7.00186C1173.25 7.44363 1175.38 7.90054 1177.41 8.62675C1178 8.83856 1178.31 9.49214 1178.09 10.0852C1177.93 10.5512 1177.49 10.8417 1177.02 10.8417Z" fill="#141515"/>
<path d="M1227.03 31.82C1226.84 31.82 1226.65 31.7716 1226.47 31.6718C1198.05 15.5923 1167.02 5.87623 1134.25 2.78985C1133.63 2.73236 1133.17 2.1756 1133.23 1.54622C1133.28 0.916837 1133.84 0.459931 1134.47 0.517422C1167.56 3.63407 1198.89 13.447 1227.59 29.6838C1228.14 29.9924 1228.33 30.6914 1228.02 31.2391C1227.82 31.6112 1227.43 31.82 1227.03 31.82Z" fill="#141515"/>
<path d="M1225.92 37.2393C1225.45 37.2393 1225.02 36.9458 1224.86 36.498C1224.69 36.0381 1224.83 35.5207 1225.21 35.212L1228.22 32.7641L1226.12 31.463C1225.59 31.1301 1225.42 30.4281 1225.75 29.8895C1226.09 29.3539 1226.79 29.1905 1227.33 29.5204L1230.78 31.6657C1231.1 31.8594 1231.3 32.1952 1231.32 32.5644C1231.35 32.9335 1231.19 33.2906 1230.9 33.5236L1229.28 34.8398L1243.07 34.3648L1237.42 21.7862L1236.96 23.7833C1236.88 24.1464 1236.63 24.446 1236.28 24.5852C1235.94 24.7274 1235.55 24.6911 1235.24 24.4914L1217.96 13.453C1217.43 13.1141 1217.27 12.4091 1217.61 11.8765C1217.95 11.344 1218.65 11.1897 1219.18 11.5286L1235.1 21.6924L1235.95 17.9555C1236.06 17.4774 1236.46 17.1234 1236.95 17.0719C1237.44 17.0266 1237.9 17.2928 1238.1 17.7407L1245.84 34.976C1246 35.324 1245.97 35.7234 1245.77 36.0472C1245.57 36.3709 1245.22 36.5706 1244.84 36.5858L1225.97 37.2363C1225.97 37.2363 1225.94 37.2363 1225.93 37.2363L1225.92 37.2393Z" fill="#141515"/>
<path d="M924.384 137.054C919.76 137.054 916 133.283 916 128.654C916 124.024 919.76 120.263 924.384 120.263C929.008 120.263 932.767 124.027 932.767 128.654C932.767 133.28 929.008 137.054 924.384 137.054ZM924.384 122.548C921.017 122.548 918.282 125.286 918.282 128.654C918.282 132.022 921.02 134.772 924.384 134.772C927.747 134.772 930.488 132.028 930.488 128.654C930.488 125.28 927.75 122.548 924.384 122.548Z" fill="#141515"/>
<path d="M1108.51 278.607L1108.46 278.619H1108.4L1108.28 278.643L1108.24 278.652L1108.18 278.676L1108.12 278.697L1108.08 278.722L1108.03 278.743L1107.98 278.767L1107.93 278.8L1107.89 278.837L1107.84 278.858L1107.8 278.903L1107.76 278.937L1107.73 278.973L1107.69 279.018L1107.66 279.064L1107.59 279.154L1107.54 279.245L1107.52 279.294L1107.5 279.348L1107.47 279.406L1107.46 279.451L1107.45 279.508L1107.44 279.566L1107.43 279.623V279.85L1107.44 279.908V279.965L1107.45 280.023L1107.47 280.08L1107.49 280.138L1107.51 280.183L1107.53 280.241L1107.55 280.286L1107.59 280.331L1107.61 280.377L1107.64 280.422L1107.68 280.468L1107.71 280.513L1107.75 280.546L1107.8 280.592L1107.83 280.628L1107.92 280.695L1107.96 280.719L1108.01 280.752L1108.07 280.776L1108.11 280.797L1108.16 280.822L1108.22 280.834L1108.27 280.855L1108.33 280.867L1108.38 280.879H1108.43L1108.49 280.888H1108.61L1108.51 278.607Z" fill="#141515"/>
<path d="M1182.91 171.821L1183.01 172.139L1183.11 172.459L1183.21 172.789L1183.32 173.11L1183.41 173.44L1183.51 173.76L1183.6 174.09L1183.69 174.411L1183.79 174.741L1183.88 175.074L1183.97 175.403L1184.06 175.724L1184.09 175.872L1186.31 175.288L1186.26 175.14L1186.08 174.456L1185.99 174.127L1185.89 173.782L1185.79 173.452L1185.69 173.119L1185.6 172.777L1185.39 172.117L1185.29 171.785L1185.19 171.455L1185.08 171.113L1182.91 171.821Z" fill="#141515"/>
<path d="M1185.08 171.113L1185.06 171.067L1185.04 171.01L1185.02 170.952L1184.99 170.907L1184.96 170.862L1184.93 170.816L1184.89 170.771L1184.86 170.725L1184.83 170.677L1184.78 170.644L1184.74 170.61L1184.7 170.565L1184.65 170.541L1184.61 170.508L1184.56 170.471L1184.52 170.45L1184.47 170.426L1184.41 170.405L1184.37 170.393L1184.31 170.371L1184.25 170.359L1184.21 170.347L1184.15 170.335L1184.09 170.326H1183.92L1183.87 170.335H1183.81L1183.75 170.347L1183.71 170.359L1183.65 170.381L1183.59 170.405L1183.53 170.426L1183.48 170.45L1183.43 170.471L1183.39 170.508L1183.34 170.529L1183.3 170.565L1183.25 170.598L1183.21 170.644L1183.17 170.677L1183.14 170.725L1183.1 170.759L1183.07 170.804L1183.03 170.85L1183.01 170.895L1182.98 170.952L1182.95 170.998L1182.93 171.043L1182.92 171.101L1182.9 171.146L1182.87 171.261L1182.86 171.306V171.364L1182.85 171.418V171.533L1182.86 171.591V171.648L1182.87 171.706L1182.9 171.763L1182.91 171.821L1185.08 171.113Z" fill="#141515"/>
</svg>
