<svg width="349" height="194" viewBox="0 0 349 194" fill="none" xmlns="http://www.w3.org/2000/svg">
<path d="M9.26001 60.828C7.13201 60.828 5.28268 60.4227 3.71201 59.612C1.63468 58.6493 0.596008 57.18 0.596008 55.204C0.596008 53.076 1.73601 51.4547 4.01601 50.34C4.87734 49.8333 5.81468 49.4787 6.82801 49.276C7.89201 49.0733 8.98134 48.972 10.096 48.972C10.552 48.972 10.78 49.048 10.78 49.2C10.78 49.352 10.552 49.428 10.096 49.428C8.17068 49.428 6.49867 49.8333 5.08001 50.644C3.25601 51.556 2.34401 52.924 2.34401 54.748C2.34401 56.268 3.02801 57.4587 4.39601 58.32C5.61201 59.08 7.00534 59.46 8.57601 59.46C12.9333 59.46 16.8853 57.484 20.432 53.532C21.648 52.2147 22.8893 50.5933 24.156 48.668C25.4227 46.7427 26.6893 44.5133 27.956 41.98C28.5133 40.8653 29.2733 39.2947 30.236 37.268C31.1987 35.1907 32.364 32.6067 33.732 29.516C34.8973 26.8813 35.9867 24.5507 37 22.524C38.0133 20.4973 38.9253 18.7493 39.736 17.28L34.644 16.14C34.1373 18.3693 33.5293 20.6747 32.82 23.056C32.1613 25.3867 31.376 27.7933 30.464 30.276C29.5013 33.0627 28.4627 35.672 27.348 38.104C26.2333 40.536 25.0933 42.816 23.928 44.944C19.976 51.8347 16.3533 55.28 13.06 55.28C11.996 55.28 11.464 55.0267 11.464 54.52C11.464 54.2667 11.5907 54.14 11.844 54.14C11.9453 54.14 12.0467 54.14 12.148 54.14C12.2493 54.1907 12.3507 54.216 12.452 54.216C12.6547 54.3173 12.8573 54.368 13.06 54.368C17.0627 54.368 21.4453 48.8707 26.208 37.876C27.88 34.1267 29.3493 30.428 30.616 26.78C31.8827 23.132 32.9467 19.5347 33.808 15.988C26.2587 14.3667 20.5333 13.556 16.632 13.556C8.47468 13.556 4.39601 16.368 4.39601 21.992C4.39601 25.7413 6.54934 29.0853 10.856 32.024C11.0587 32.176 11.16 32.3027 11.16 32.404C11.16 32.556 11.0587 32.632 10.856 32.632C10.8053 32.632 10.6787 32.5813 10.476 32.48C4.80134 29.2373 1.96401 25.3613 1.96401 20.852C1.96401 17.66 3.50934 15.304 6.60001 13.784C7.76534 13.2267 9.08267 12.8213 10.552 12.568C12.0213 12.264 13.668 12.112 15.492 12.112C17.62 12.112 20.2293 12.3147 23.32 12.72C26.4107 13.1253 30.0333 13.7333 34.188 14.544C34.34 13.784 34.4667 12.9733 34.568 12.112C34.72 11.2 34.8467 10.2373 34.948 9.224C35.0493 8.71734 35.2013 8.388 35.404 8.236C35.556 8.28667 35.632 8.79334 35.632 9.75601C35.632 10.364 35.5813 11.0987 35.48 11.96C35.3787 12.7707 35.2267 13.6827 35.024 14.696L40.572 15.76C45.0813 8.21067 50.0467 4.436 55.468 4.436C58.7613 4.436 60.408 5.804 60.408 8.54C60.408 9.04667 60.3067 9.3 60.104 9.3C59.9013 9.3 59.8 9.09734 59.8 8.69201C59.8 6.71601 58.4827 5.728 55.848 5.728C52.2 5.728 48.3493 9.3 44.296 16.444C46.9307 16.9507 49.2107 17.3307 51.136 17.584C53.112 17.7867 54.7587 17.888 56.076 17.888C60.9907 17.888 63.448 16.672 63.448 14.24C63.448 13.8853 63.3973 13.556 63.296 13.252C63.0933 13.0493 62.992 12.872 62.992 12.72C62.992 12.568 63.0427 12.492 63.144 12.492C63.448 12.492 63.752 12.9227 64.056 13.784C64.2587 14.392 64.36 14.9493 64.36 15.456C64.36 18.5467 61.8773 20.092 56.912 20.092C54.0747 20.092 49.54 19.408 43.308 18.04C42.9533 18.8 42.1933 20.3453 41.028 22.676C39.8627 25.0067 38.3427 28.1227 36.468 32.024C34.4413 36.28 32.5413 39.928 30.768 42.968C29.0453 46.008 27.4747 48.4653 26.056 50.34C20.8373 57.332 15.2387 60.828 9.26001 60.828Z" fill="#244D62"/>
<path d="M42.9256 53.456C41.4563 53.456 40.7216 52.4933 40.7216 50.568C40.7216 47.4267 42.115 43.4493 44.9016 38.636C44.699 38.8387 44.091 39.6747 43.0776 41.144C42.0136 42.6133 41.4056 43.348 41.2536 43.348C41.1523 43.348 41.1016 43.272 41.1016 43.12C41.1016 42.512 42.2416 40.84 44.5216 38.104C45.5856 36.8373 46.4723 35.7987 47.1816 34.988C47.9416 34.1773 48.5496 33.5947 49.0056 33.24C50.1203 32.4293 51.083 32.024 51.8936 32.024C52.451 32.024 52.7296 32.176 52.7296 32.48C52.7296 32.632 52.6283 32.784 52.4256 32.936C51.615 33.7973 50.7283 34.9627 49.7656 36.432C48.803 37.8507 47.739 39.5733 46.5736 41.6C43.939 46.16 42.6216 49.2253 42.6216 50.796C42.6216 51.404 42.8243 51.708 43.2296 51.708C46.4216 51.708 50.7536 47.528 56.2256 39.168C56.479 38.7627 56.783 38.256 57.1376 37.648C57.543 36.9893 57.999 36.2547 58.5056 35.444C58.7083 35.0893 59.2656 34.912 60.1776 34.912C61.2416 34.912 61.7736 35.292 61.7736 36.052C59.8483 39.0413 58.8856 42.208 58.8856 45.552C58.8856 47.984 59.5443 49.2 60.8616 49.2C62.1283 49.2 63.623 47.832 65.3456 45.096C66.0043 44.032 66.5616 43.0187 67.0176 42.056C67.5243 41.0427 67.9043 40.1053 68.1576 39.244C66.891 35.14 66.2576 32.86 66.2576 32.404C66.2576 31.5427 66.6376 31.112 67.3976 31.112C68.259 31.112 69.0443 31.6947 69.7536 32.86C70.311 33.8733 70.5896 34.8613 70.5896 35.824C70.5896 36.888 70.3363 37.952 69.8296 39.016C69.8803 39.3707 69.931 39.7 69.9816 40.004C70.083 40.308 70.159 40.612 70.2096 40.916C70.3616 41.5747 70.6656 42.132 71.1216 42.588C71.3243 42.8413 71.4256 43.0947 71.4256 43.348C71.4256 43.5507 71.3496 43.652 71.1976 43.652C70.7416 43.652 69.9056 42.4867 68.6896 40.156C67.9803 42.6387 67.0683 44.8173 65.9536 46.692C64.3323 49.3773 62.635 50.72 60.8616 50.72C59.139 50.72 57.8216 50.1627 56.9096 49.048C55.9976 47.8827 55.5416 46.4133 55.5416 44.64C55.5416 43.8293 55.6176 43.0187 55.7696 42.208C54.959 43.272 54.0723 44.3613 53.1096 45.476C52.147 46.5907 51.083 47.7307 49.9176 48.896C46.827 51.936 44.4963 53.456 42.9256 53.456Z" fill="#244D62"/>
<path d="M77.1108 53.532C75.1348 53.532 74.1468 52.2653 74.1468 49.732C74.1468 46.6413 75.3121 43.4747 77.6428 40.232C76.8321 38.256 76.4268 36.1533 76.4268 33.924C76.4268 31.7453 76.8575 29.8453 77.7188 28.224C79.3908 25.032 81.4681 23.436 83.9508 23.436C87.0921 23.436 88.9161 26.1213 89.4228 31.492C91.9561 31.5933 93.2228 32.9107 93.2228 35.444C93.2228 37.5213 92.8935 38.56 92.2348 38.56C92.0321 38.56 91.9308 38.408 91.9308 38.104C91.9308 38.0027 91.9308 37.9013 91.9308 37.8C91.9815 37.6987 92.0321 37.572 92.0828 37.42C92.0828 37.2173 92.0828 37.0653 92.0828 36.964C92.1335 36.812 92.1588 36.7107 92.1588 36.66C92.1588 35.8493 91.9055 35.1907 91.3988 34.684C90.8415 34.1267 90.2081 33.848 89.4988 33.848C88.8908 40.0293 87.3961 44.7667 85.0148 48.06H87.3708C86.7121 48.4653 86.1295 48.668 85.6228 48.668C85.4708 48.668 85.3441 48.6427 85.2428 48.592C85.0908 48.5413 84.9388 48.516 84.7868 48.516C84.9895 48.516 84.1028 49.352 82.1268 51.024C80.1508 52.696 78.4788 53.532 77.1108 53.532ZM78.4788 39.396C81.5695 35.2413 84.8121 32.6573 88.2068 31.644C87.1935 27.2867 85.8001 25.108 84.0268 25.108C82.4055 25.108 80.9108 26.704 79.5428 29.896C79.0868 30.9093 78.7575 31.9987 78.5548 33.164C78.3521 34.2787 78.2508 35.444 78.2508 36.66C78.2508 37.6227 78.3268 38.5347 78.4788 39.396ZM82.5828 47.68C83.7988 46.5653 85.0401 44.3867 86.3068 41.144C87.6241 37.8 88.2828 35.3427 88.2828 33.772C87.1681 33.924 85.4201 34.9627 83.0388 36.888C80.7081 38.7627 79.2641 40.2573 78.7068 41.372C79.7708 45.2227 81.0628 47.3253 82.5828 47.68ZM77.3388 51.252C78.7575 51.252 80.4041 50.188 82.2788 48.06C80.6068 47.8573 79.2388 45.856 78.1748 42.056C76.5028 44.8427 75.6668 47.0213 75.6668 48.592C75.6668 50.3653 76.2241 51.252 77.3388 51.252Z" fill="#244D62"/>
<path d="M128.249 60.068C123.334 60.068 119.255 59.1053 116.013 57.18C111.959 54.8493 109.933 51.4293 109.933 46.92C109.933 42.5627 111.579 38.9653 114.873 36.128C118.115 33.3413 121.89 31.948 126.197 31.948C128.578 31.948 129.769 32.1507 129.769 32.556C129.769 32.6573 128.882 32.708 127.109 32.708C123.106 32.708 119.61 33.924 116.621 36.356C113.429 38.8387 111.833 42.208 111.833 46.464C111.833 50.568 113.302 53.7853 116.241 56.116C119.078 58.396 122.523 59.536 126.577 59.536C130.326 59.536 134.43 58.624 138.889 56.8C146.438 53.76 150.213 49.0227 150.213 42.588C150.213 40.764 149.782 39.0413 148.921 37.42C148.059 35.748 146.742 34.2787 144.969 33.012C143.398 31.8467 141.802 30.808 140.181 29.896C138.61 28.9333 137.014 27.8947 135.393 26.78C133.67 25.6147 132.378 24.2973 131.517 22.828C130.655 21.3587 130.225 19.8387 130.225 18.268C130.225 16.0387 131.061 14.012 132.733 12.188C131.213 12.34 129.921 13.0747 128.857 14.392C127.843 15.8107 127.337 17.28 127.337 18.8C127.337 20.472 127.742 22.068 128.553 23.588C129.363 25.108 130.605 26.5013 132.277 27.768C133.746 28.8827 135.241 29.972 136.761 31.036C138.331 32.0493 139.877 33.0627 141.397 34.076C144.639 36.7107 146.261 39.8773 146.261 43.576C146.261 47.1227 144.437 50.4667 140.789 53.608C139.066 55.128 137.293 56.2427 135.469 56.952C133.645 57.712 131.846 58.092 130.073 58.092C129.819 58.092 129.693 58.016 129.693 57.864C129.693 57.56 129.87 57.408 130.225 57.408C131.086 57.3067 131.846 57.18 132.505 57.028C133.163 56.876 133.746 56.724 134.253 56.572C136.989 55.4573 139.395 53.76 141.473 51.48C143.753 48.896 144.893 46.2613 144.893 43.576C144.893 41.8027 144.487 40.1307 143.677 38.56C142.917 36.9893 141.726 35.596 140.105 34.38C138.686 33.2653 137.217 32.2267 135.697 31.264C134.177 30.3013 132.682 29.2627 131.213 28.148C129.541 26.932 128.299 25.5387 127.489 23.968C126.729 22.3467 126.349 20.6493 126.349 18.876C126.349 17.0013 126.982 15.3547 128.249 13.936C128.907 13.2267 129.642 12.6947 130.453 12.34C131.263 11.9347 132.15 11.732 133.113 11.732H133.189C136.786 8.28667 141.574 6.56401 147.553 6.56401C152.923 6.56401 156.597 7.80534 158.573 10.288C159.181 11.048 159.485 11.8587 159.485 12.72C159.485 14.392 158.421 15.608 156.293 16.368C154.773 16.976 153.025 17.28 151.049 17.28C150.086 17.28 149.073 17.2293 148.009 17.128C146.945 16.976 145.83 16.748 144.665 16.444C143.297 16.1907 142.131 15.8613 141.169 15.456C140.206 15 139.395 14.544 138.737 14.088C138.635 13.9867 138.585 13.9107 138.585 13.86C138.585 13.708 138.661 13.632 138.813 13.632C138.914 13.632 138.99 13.6573 139.041 13.708C141.878 15.532 145.805 16.444 150.821 16.444C151.682 16.444 152.467 16.368 153.177 16.216C153.886 16.064 154.545 15.8867 155.153 15.684C156.825 14.924 157.661 13.9107 157.661 12.644C157.661 10.82 156.343 9.45201 153.709 8.54C151.733 7.83067 149.681 7.476 147.553 7.476C141.27 7.476 136.938 9.55334 134.557 13.708C133.847 14.9747 133.493 16.292 133.493 17.66C133.493 20.7507 135.215 23.4613 138.661 25.792C140.231 26.8053 141.802 27.8187 143.373 28.832C144.994 29.8453 146.59 30.8587 148.161 31.872C151.606 34.7093 153.329 38.18 153.329 42.284C153.329 47.8573 150.441 52.3667 144.665 55.812C139.75 58.6493 134.278 60.068 128.249 60.068Z" fill="#244D62"/>
<path d="M160.533 53.532C158.557 53.532 157.569 52.2653 157.569 49.732C157.569 46.6413 158.734 43.4747 161.065 40.232C160.254 38.256 159.849 36.1533 159.849 33.924C159.849 31.7453 160.279 29.8453 161.141 28.224C162.813 25.032 164.89 23.436 167.373 23.436C170.514 23.436 172.338 26.1213 172.845 31.492C175.378 31.5933 176.645 32.9107 176.645 35.444C176.645 37.5213 176.315 38.56 175.657 38.56C175.454 38.56 175.353 38.408 175.353 38.104C175.353 38.0027 175.353 37.9013 175.353 37.8C175.403 37.6987 175.454 37.572 175.505 37.42C175.505 37.2173 175.505 37.0653 175.505 36.964C175.555 36.812 175.581 36.7107 175.581 36.66C175.581 35.8493 175.327 35.1907 174.821 34.684C174.263 34.1267 173.63 33.848 172.921 33.848C172.313 40.0293 170.818 44.7667 168.437 48.06H170.793C170.134 48.4653 169.551 48.668 169.045 48.668C168.893 48.668 168.766 48.6427 168.665 48.592C168.513 48.5413 168.361 48.516 168.209 48.516C168.411 48.516 167.525 49.352 165.549 51.024C163.573 52.696 161.901 53.532 160.533 53.532ZM161.901 39.396C164.991 35.2413 168.234 32.6573 171.629 31.644C170.615 27.2867 169.222 25.108 167.449 25.108C165.827 25.108 164.333 26.704 162.965 29.896C162.509 30.9093 162.179 31.9987 161.977 33.164C161.774 34.2787 161.673 35.444 161.673 36.66C161.673 37.6227 161.749 38.5347 161.901 39.396ZM166.005 47.68C167.221 46.5653 168.462 44.3867 169.729 41.144C171.046 37.8 171.705 35.3427 171.705 33.772C170.59 33.924 168.842 34.9627 166.461 36.888C164.13 38.7627 162.686 40.2573 162.129 41.372C163.193 45.2227 164.485 47.3253 166.005 47.68ZM160.761 51.252C162.179 51.252 163.826 50.188 165.701 48.06C164.029 47.8573 162.661 45.856 161.597 42.056C159.925 44.8427 159.089 47.0213 159.089 48.592C159.089 50.3653 159.646 51.252 160.761 51.252Z" fill="#244D62"/>
<path d="M179.177 53.304C178.62 53.304 178.341 53.152 178.341 52.848C178.341 51.024 179.076 48.6933 180.545 45.856C182.369 42.3093 183.433 40.004 183.737 38.94C184.244 37.116 184.497 34.9627 184.497 32.48C184.396 32.9867 184.066 33.7467 183.509 34.76C183.002 35.7227 182.318 36.9387 181.457 38.408C180.646 39.8267 179.912 41.0173 179.253 41.98C178.645 42.892 178.138 43.6267 177.733 44.184C177.733 44.2347 177.682 44.26 177.581 44.26C177.328 44.26 177.201 44.1587 177.201 43.956C177.201 43.956 177.378 43.6267 177.733 42.968C178.138 42.3093 178.721 41.3467 179.481 40.08C181.913 35.824 183.484 32.252 184.193 29.364C184.497 28.0467 185.105 27.388 186.017 27.388C186.929 27.388 187.385 28.452 187.385 30.58C187.385 31.6947 187.233 33.088 186.929 34.76C186.625 36.432 186.118 38.3573 185.409 40.536C184.902 42.208 184.37 43.88 183.813 45.552C183.306 47.224 182.774 48.8707 182.217 50.492C184.092 49.0733 185.89 47.452 187.613 45.628C189.386 43.804 190.982 41.7013 192.401 39.32L192.857 38.56C193.11 36.736 193.414 35.2413 193.769 34.076C194.174 32.9107 194.554 32.0747 194.909 31.568C195.213 31.2133 195.669 31.036 196.277 31.036C197.341 31.036 197.873 31.3147 197.873 31.872C197.873 33.392 197.392 34.7853 196.429 36.052C195.314 39.852 194.757 43.5507 194.757 47.148C194.757 49.58 195.517 50.796 197.037 50.796C197.797 50.796 198.684 50.3653 199.697 49.504C200.71 48.6427 201.192 48.212 201.141 48.212C201.293 48.212 201.369 48.364 201.369 48.668V48.82C199.646 51.252 197.721 52.468 195.593 52.468C193.414 52.468 192.325 50.5933 192.325 46.844C192.325 45.932 192.35 44.944 192.401 43.88C192.502 42.816 192.604 41.6507 192.705 40.384C190.78 44.032 187.613 47.5787 183.205 51.024C182.952 51.2267 182.597 51.5053 182.141 51.86C181.685 52.2147 181.178 52.5947 180.621 53C180.368 53.2027 179.886 53.304 179.177 53.304Z" fill="#244D62"/>
<path d="M206.224 53C203.69 53 202.424 51.708 202.424 49.124C202.424 46.3373 203.716 41.448 206.3 34.456C205.033 36.1787 204.146 37.04 203.64 37.04C203.488 37.04 203.412 36.964 203.412 36.812C203.412 36.7613 204.07 35.8747 205.388 34.152C206.046 33.2907 206.553 32.632 206.908 32.176C207.313 31.6693 207.541 31.34 207.592 31.188C207.845 30.4787 208.2 29.5667 208.656 28.452C209.111 27.3373 209.644 26.0707 210.252 24.652C211.316 22.1187 212.43 19.5853 213.596 17.052C214.812 14.468 216.053 11.884 217.32 9.3C217.725 8.43867 218.232 7.40001 218.84 6.184C219.498 4.968 220.258 3.57467 221.12 2.00401C221.576 1.14267 222.614 0.712006 224.236 0.712006C225.148 0.712006 225.604 0.940006 225.604 1.39601C225.604 1.548 225.578 1.67467 225.528 1.77601C224.616 3.80267 223.248 6.84267 221.424 10.896C221.221 11.3013 220.993 11.808 220.74 12.416C220.486 13.024 220.157 13.7333 219.752 14.544C219.397 14.7467 218.941 15.1267 218.384 15.684C218.384 15.684 218.105 16.216 217.548 17.28C216.99 18.344 216.18 19.9147 215.116 21.992C207.972 35.8747 204.4 44.944 204.4 49.2C204.4 50.872 204.957 51.708 206.072 51.708C207.338 51.708 208.833 50.9987 210.556 49.58C212.329 48.1107 213.165 47.376 213.064 47.376C213.266 47.376 213.368 47.4773 213.368 47.68C213.368 47.7813 213.266 47.984 213.064 48.288C210.834 51.4293 208.554 53 206.224 53Z" fill="#244D62"/>
<path d="M221.05 53.912C218.669 53.912 216.515 52.924 214.59 50.948C212.715 48.9213 211.778 46.7173 211.778 44.336C211.778 42.7653 212.183 41.98 212.994 41.98C213.501 41.98 214.007 42.36 214.514 43.12C216.034 39.5733 218.187 35.5707 220.974 31.112C222.747 28.376 224.825 27.008 227.206 27.008C227.713 27.008 228.295 27.1853 228.954 27.54C229.663 27.9453 230.018 28.376 230.018 28.832C230.018 29.1867 229.689 29.364 229.03 29.364C228.979 29.364 228.903 29.364 228.802 29.364C228.701 29.364 228.574 29.3387 228.422 29.288H227.814C226.649 29.288 225.661 29.6173 224.85 30.276C223.989 30.9853 223.558 31.872 223.558 32.936C223.558 33.3413 223.634 33.772 223.786 34.228C224.09 35.2413 224.394 36.2547 224.698 37.268C225.002 38.2813 225.306 39.2947 225.61 40.308C225.965 41.524 226.218 42.664 226.37 43.728C226.573 44.7413 226.674 45.6787 226.674 46.54C228.042 46.3373 229.207 45.8307 230.17 45.02C230.778 44.5133 231.589 43.5 232.602 41.98C232.754 41.7773 232.906 41.676 233.058 41.676C233.21 41.676 233.286 41.7773 233.286 41.98C233.286 42.1827 233.235 42.36 233.134 42.512C231.411 45.4 229.283 47.0973 226.75 47.604C226.598 49.3773 226.066 50.8467 225.154 52.012C224.191 53.2787 222.823 53.912 221.05 53.912ZM223.558 47.528C223.609 47.3253 223.634 47.148 223.634 46.996C223.634 46.844 223.634 46.6667 223.634 46.464C223.634 45.8053 223.507 44.9187 223.254 43.804C223.051 42.6387 222.747 41.22 222.342 39.548C221.582 36.356 221.303 34.228 221.506 33.164C220.189 34.532 218.035 38.18 215.046 44.108C216.009 44.6147 216.819 45.0707 217.478 45.476C218.187 45.8307 218.745 46.1093 219.15 46.312C220.67 47.0213 222.139 47.4267 223.558 47.528ZM219.454 51.404C221.481 51.404 222.823 50.416 223.482 48.44C219.429 48.44 216.338 47.604 214.21 45.932C214.311 47.0973 214.919 48.288 216.034 49.504C217.149 50.7707 218.289 51.404 219.454 51.404Z" fill="#244D62"/>
<path d="M87.26 166.828C85.132 166.828 83.2827 166.423 81.712 165.612C79.6347 164.649 78.596 163.18 78.596 161.204C78.596 159.076 79.736 157.455 82.016 156.34C82.8773 155.833 83.8147 155.479 84.828 155.276C85.892 155.073 86.9813 154.972 88.096 154.972C88.552 154.972 88.78 155.048 88.78 155.2C88.78 155.352 88.552 155.428 88.096 155.428C86.1707 155.428 84.4987 155.833 83.08 156.644C81.256 157.556 80.344 158.924 80.344 160.748C80.344 162.268 81.028 163.459 82.396 164.32C83.612 165.08 85.0053 165.46 86.576 165.46C90.9333 165.46 94.8853 163.484 98.432 159.532C99.648 158.215 100.889 156.593 102.156 154.668C103.423 152.743 104.689 150.513 105.956 147.98C106.513 146.865 107.273 145.295 108.236 143.268C109.199 141.191 110.364 138.607 111.732 135.516C112.897 132.881 113.987 130.551 115 128.524C116.013 126.497 116.925 124.749 117.736 123.28L112.644 122.14C112.137 124.369 111.529 126.675 110.82 129.056C110.161 131.387 109.376 133.793 108.464 136.276C107.501 139.063 106.463 141.672 105.348 144.104C104.233 146.536 103.093 148.816 101.928 150.944C97.976 157.835 94.3533 161.28 91.06 161.28C89.996 161.28 89.464 161.027 89.464 160.52C89.464 160.267 89.5907 160.14 89.844 160.14C89.9453 160.14 90.0467 160.14 90.148 160.14C90.2493 160.191 90.3507 160.216 90.452 160.216C90.6547 160.317 90.8573 160.368 91.06 160.368C95.0627 160.368 99.4453 154.871 104.208 143.876C105.88 140.127 107.349 136.428 108.616 132.78C109.883 129.132 110.947 125.535 111.808 121.988C104.259 120.367 98.5333 119.556 94.632 119.556C86.4747 119.556 82.396 122.368 82.396 127.992C82.396 131.741 84.5493 135.085 88.856 138.024C89.0587 138.176 89.16 138.303 89.16 138.404C89.16 138.556 89.0587 138.632 88.856 138.632C88.8053 138.632 88.6787 138.581 88.476 138.48C82.8013 135.237 79.964 131.361 79.964 126.852C79.964 123.66 81.5093 121.304 84.6 119.784C85.7653 119.227 87.0827 118.821 88.552 118.568C90.0213 118.264 91.668 118.112 93.492 118.112C95.62 118.112 98.2293 118.315 101.32 118.72C104.411 119.125 108.033 119.733 112.188 120.544C112.34 119.784 112.467 118.973 112.568 118.112C112.72 117.2 112.847 116.237 112.948 115.224C113.049 114.717 113.201 114.388 113.404 114.236C113.556 114.287 113.632 114.793 113.632 115.756C113.632 116.364 113.581 117.099 113.48 117.96C113.379 118.771 113.227 119.683 113.024 120.696L118.572 121.76C123.081 114.211 128.047 110.436 133.468 110.436C136.761 110.436 138.408 111.804 138.408 114.54C138.408 115.047 138.307 115.3 138.104 115.3C137.901 115.3 137.8 115.097 137.8 114.692C137.8 112.716 136.483 111.728 133.848 111.728C130.2 111.728 126.349 115.3 122.296 122.444C124.931 122.951 127.211 123.331 129.136 123.584C131.112 123.787 132.759 123.888 134.076 123.888C138.991 123.888 141.448 122.672 141.448 120.24C141.448 119.885 141.397 119.556 141.296 119.252C141.093 119.049 140.992 118.872 140.992 118.72C140.992 118.568 141.043 118.492 141.144 118.492C141.448 118.492 141.752 118.923 142.056 119.784C142.259 120.392 142.36 120.949 142.36 121.456C142.36 124.547 139.877 126.092 134.912 126.092C132.075 126.092 127.54 125.408 121.308 124.04C120.953 124.8 120.193 126.345 119.028 128.676C117.863 131.007 116.343 134.123 114.468 138.024C112.441 142.28 110.541 145.928 108.768 148.968C107.045 152.008 105.475 154.465 104.056 156.34C98.8373 163.332 93.2387 166.828 87.26 166.828Z" fill="#244D62"/>
<path d="M120.926 159.456C119.456 159.456 118.722 158.493 118.722 156.568C118.722 153.427 120.115 149.449 122.902 144.636C122.699 144.839 122.091 145.675 121.078 147.144C120.014 148.613 119.406 149.348 119.254 149.348C119.152 149.348 119.102 149.272 119.102 149.12C119.102 148.512 120.242 146.84 122.522 144.104C123.586 142.837 124.472 141.799 125.182 140.988C125.942 140.177 126.55 139.595 127.006 139.24C128.12 138.429 129.083 138.024 129.894 138.024C130.451 138.024 130.73 138.176 130.73 138.48C130.73 138.632 130.628 138.784 130.426 138.936C129.615 139.797 128.728 140.963 127.766 142.432C126.803 143.851 125.739 145.573 124.574 147.6C121.939 152.16 120.622 155.225 120.622 156.796C120.622 157.404 120.824 157.708 121.23 157.708C124.422 157.708 128.754 153.528 134.226 145.168C134.479 144.763 134.783 144.256 135.138 143.648C135.543 142.989 135.999 142.255 136.506 141.444C136.708 141.089 137.266 140.912 138.178 140.912C139.242 140.912 139.774 141.292 139.774 142.052C137.848 145.041 136.886 148.208 136.886 151.552C136.886 153.984 137.544 155.2 138.862 155.2C140.128 155.2 141.623 153.832 143.346 151.096C144.004 150.032 144.562 149.019 145.018 148.056C145.524 147.043 145.904 146.105 146.158 145.244C144.891 141.14 144.258 138.86 144.258 138.404C144.258 137.543 144.638 137.112 145.398 137.112C146.259 137.112 147.044 137.695 147.754 138.86C148.311 139.873 148.59 140.861 148.59 141.824C148.59 142.888 148.336 143.952 147.83 145.016C147.88 145.371 147.931 145.7 147.982 146.004C148.083 146.308 148.159 146.612 148.21 146.916C148.362 147.575 148.666 148.132 149.122 148.588C149.324 148.841 149.426 149.095 149.426 149.348C149.426 149.551 149.35 149.652 149.198 149.652C148.742 149.652 147.906 148.487 146.69 146.156C145.98 148.639 145.068 150.817 143.954 152.692C142.332 155.377 140.635 156.72 138.862 156.72C137.139 156.72 135.822 156.163 134.91 155.048C133.998 153.883 133.542 152.413 133.542 150.64C133.542 149.829 133.618 149.019 133.77 148.208C132.959 149.272 132.072 150.361 131.11 151.476C130.147 152.591 129.083 153.731 127.918 154.896C124.827 157.936 122.496 159.456 120.926 159.456Z" fill="#244D62"/>
<path d="M155.111 159.532C153.135 159.532 152.147 158.265 152.147 155.732C152.147 152.641 153.312 149.475 155.643 146.232C154.832 144.256 154.427 142.153 154.427 139.924C154.427 137.745 154.857 135.845 155.719 134.224C157.391 131.032 159.468 129.436 161.951 129.436C165.092 129.436 166.916 132.121 167.423 137.492C169.956 137.593 171.223 138.911 171.223 141.444C171.223 143.521 170.893 144.56 170.235 144.56C170.032 144.56 169.931 144.408 169.931 144.104C169.931 144.003 169.931 143.901 169.931 143.8C169.981 143.699 170.032 143.572 170.083 143.42C170.083 143.217 170.083 143.065 170.083 142.964C170.133 142.812 170.159 142.711 170.159 142.66C170.159 141.849 169.905 141.191 169.399 140.684C168.841 140.127 168.208 139.848 167.499 139.848C166.891 146.029 165.396 150.767 163.015 154.06H165.371C164.712 154.465 164.129 154.668 163.623 154.668C163.471 154.668 163.344 154.643 163.243 154.592C163.091 154.541 162.939 154.516 162.787 154.516C162.989 154.516 162.103 155.352 160.127 157.024C158.151 158.696 156.479 159.532 155.111 159.532ZM156.479 145.396C159.569 141.241 162.812 138.657 166.207 137.644C165.193 133.287 163.8 131.108 162.027 131.108C160.405 131.108 158.911 132.704 157.543 135.896C157.087 136.909 156.757 137.999 156.555 139.164C156.352 140.279 156.251 141.444 156.251 142.66C156.251 143.623 156.327 144.535 156.479 145.396ZM160.583 153.68C161.799 152.565 163.04 150.387 164.307 147.144C165.624 143.8 166.283 141.343 166.283 139.772C165.168 139.924 163.42 140.963 161.039 142.888C158.708 144.763 157.264 146.257 156.707 147.372C157.771 151.223 159.063 153.325 160.583 153.68ZM155.339 157.252C156.757 157.252 158.404 156.188 160.279 154.06C158.607 153.857 157.239 151.856 156.175 148.056C154.503 150.843 153.667 153.021 153.667 154.592C153.667 156.365 154.224 157.252 155.339 157.252Z" fill="#244D62"/>
<path d="M178.433 175.644C175.899 175.644 174.633 174.783 174.633 173.06C174.633 172.047 174.835 171.388 175.241 171.084V171.844C175.241 173.719 176.305 174.656 178.433 174.656C183.651 174.656 189.377 170.907 195.609 163.408C194.646 163.003 193.759 162.547 192.949 162.04C188.135 168.069 183.93 171.084 180.333 171.084C179.877 171.084 179.649 170.907 179.649 170.552C179.649 170.349 179.851 170.172 180.257 170.02C180.51 170.02 180.789 169.969 181.093 169.868C181.397 169.817 181.751 169.767 182.157 169.716C185.298 168.753 188.667 166.043 192.265 161.584C189.782 159.76 188.541 157.809 188.541 155.732C188.541 153.249 190.263 150.944 193.709 148.816C196.191 147.245 199.003 146.055 202.145 145.244C204.678 139.671 206.603 134.3 207.921 129.132C209.289 123.913 210.074 118.923 210.277 114.16C209.517 113.856 208.605 113.704 207.541 113.704C203.893 113.704 200.143 115.173 196.293 118.112C192.138 121.253 190.061 124.547 190.061 127.992C190.061 131.032 192.239 133.692 196.597 135.972C196.749 136.023 196.825 136.175 196.825 136.428C196.825 136.783 196.647 136.96 196.293 136.96H195.989C193.709 135.997 191.783 134.781 190.213 133.312C188.237 131.387 187.249 129.385 187.249 127.308C187.249 124.42 188.845 121.684 192.037 119.1C194.57 116.921 197.433 115.325 200.625 114.312C203.057 113.501 205.514 113.096 207.997 113.096C208.402 113.096 208.782 113.121 209.137 113.172C209.542 113.172 209.922 113.197 210.277 113.248V110.588C210.277 110.233 210.429 110.056 210.733 110.056C210.986 110.056 211.113 111.171 211.113 113.4C216.281 114.464 218.865 117.96 218.865 123.888C218.865 128.853 216.787 135.389 212.633 143.496C213.95 143.395 215.673 143.293 217.801 143.192C219.929 143.04 222.462 142.939 225.401 142.888C225.603 142.888 225.933 142.888 226.389 142.888C226.845 142.837 227.402 142.787 228.061 142.736C228.618 142.685 229.099 142.66 229.505 142.66C229.91 142.66 230.29 142.66 230.645 142.66C230.949 142.66 231.101 142.736 231.101 142.888C231.101 143.344 230.569 143.648 229.505 143.8C228.745 143.851 227.858 143.901 226.845 143.952C225.831 143.952 224.691 144.003 223.425 144.104C218.662 144.307 214.786 144.687 211.797 145.244C208.098 152.084 203.715 158.215 198.649 163.636C198.953 163.687 199.434 163.788 200.093 163.94C200.802 164.092 201.663 164.269 202.677 164.472C203.082 164.573 203.285 164.7 203.285 164.852C203.285 165.105 203.031 165.232 202.525 165.232C201.511 165.232 200.017 164.903 198.041 164.244C190.846 171.844 184.31 175.644 178.433 175.644ZM236.269 172.072C230.543 172.072 227.681 168.804 227.681 162.268C227.681 157.961 228.973 152.16 231.557 144.864C231.81 144.155 232.697 141.976 234.217 138.328C235.737 134.68 237.89 129.487 240.677 122.748C241.082 121.887 241.538 120.797 242.045 119.48C242.551 118.163 243.134 116.643 243.793 114.92C244.249 113.755 244.629 113.172 244.933 113.172C245.287 113.172 245.465 113.501 245.465 114.16C245.465 114.312 245.439 114.464 245.389 114.616C245.389 114.768 245.363 114.92 245.313 115.072C245.11 115.781 244.705 117.073 244.097 118.948C243.489 120.772 242.678 123.153 241.665 126.092C240.347 129.892 239.207 133.312 238.245 136.352C237.282 139.341 236.446 141.951 235.737 144.18C233.609 151.78 232.545 157.759 232.545 162.116C232.545 168.044 234.343 171.008 237.941 171.008C239.41 171.008 241.183 170.273 243.261 168.804C243.97 168.297 244.705 167.689 245.465 166.98C246.275 166.321 247.137 165.561 248.049 164.7C248.809 163.991 249.366 163.459 249.721 163.104C250.126 162.749 250.329 162.572 250.329 162.572C250.379 162.623 250.405 162.648 250.405 162.648C250.455 162.648 250.481 162.648 250.481 162.648C250.481 162.749 250.405 162.927 250.253 163.18C248.581 165.612 246.579 167.639 244.249 169.26C241.462 171.135 238.802 172.072 236.269 172.072ZM203.133 145.016C203.893 144.813 204.678 144.636 205.489 144.484C206.299 144.281 207.161 144.129 208.073 144.028C210.302 139.417 211.999 135.288 213.165 131.64C214.33 127.992 214.913 124.851 214.913 122.216C214.913 118.315 213.646 115.756 211.113 114.54C211.113 118.948 210.429 123.711 209.061 128.828C207.743 133.895 205.767 139.291 203.133 145.016ZM196.217 162.648C198.142 160.317 199.991 157.784 201.765 155.048C203.538 152.261 205.235 149.323 206.857 146.232C205.995 146.435 205.134 146.688 204.273 146.992C203.411 147.245 202.55 147.549 201.689 147.904C199.206 152.971 196.546 157.379 193.709 161.128C194.317 161.736 195.153 162.243 196.217 162.648ZM193.101 160.596C194.418 158.823 195.685 156.923 196.901 154.896C198.167 152.869 199.409 150.691 200.625 148.36C194.595 151.045 191.581 153.959 191.581 157.1C191.581 158.316 192.087 159.481 193.101 160.596Z" fill="#244D62"/>
<path d="M247.143 160.444C243.545 160.444 241.747 158.113 241.747 153.452C241.747 152.743 241.772 151.983 241.823 151.172C241.924 150.311 242.076 149.399 242.279 148.436C242.076 148.284 241.873 148.081 241.671 147.828C241.468 147.524 241.265 147.169 241.063 146.764C241.265 146.815 241.468 146.916 241.671 147.068C241.924 147.169 242.228 147.271 242.583 147.372C243.14 144.839 244.66 142.331 247.143 139.848C249.828 137.112 252.361 135.744 254.743 135.744C255.3 135.744 255.579 135.82 255.579 135.972C255.579 136.073 255.224 136.327 254.515 136.732C252.64 137.745 250.892 139.316 249.271 141.444C247.548 143.572 246.307 145.7 245.547 147.828C245.597 147.879 245.623 147.904 245.623 147.904C245.623 147.904 245.648 147.929 245.699 147.98C248.131 147.98 250.664 146.815 253.299 144.484C255.933 142.153 257.251 139.772 257.251 137.34C257.251 136.631 257.048 135.947 256.643 135.288C256.288 134.68 255.731 134.376 254.971 134.376C254.008 134.376 252.868 134.756 251.551 135.516C250.284 136.327 249.575 136.732 249.423 136.732C249.321 136.732 249.271 136.707 249.271 136.656C249.271 136.048 250.157 135.389 251.931 134.68C253.451 134.072 254.641 133.768 255.503 133.768C256.719 133.768 257.681 134.097 258.391 134.756C259.201 135.415 259.607 136.327 259.607 137.492C259.607 140.177 257.859 142.787 254.363 145.32C251.221 147.549 248.181 148.791 245.243 149.044C244.837 150.26 244.635 151.425 244.635 152.54C244.635 156.745 246.155 158.848 249.195 158.848C251.525 158.848 253.957 157.835 256.491 155.808C258.619 154.136 260.392 152.109 261.811 149.728C262.267 149.019 262.647 148.664 262.951 148.664C263.001 148.664 263.027 148.715 263.027 148.816C263.027 149.019 262.824 149.475 262.419 150.184C260.848 152.667 258.644 154.947 255.807 157.024C252.716 159.304 249.828 160.444 247.143 160.444Z" fill="#244D62"/>
<path d="M277.157 160.064C275.789 160.064 274.725 159.355 273.965 157.936C273.357 156.771 273.053 155.428 273.053 153.908C273.053 153.148 273.103 152.312 273.205 151.4C273.357 150.437 273.559 149.399 273.813 148.284C270.621 155.377 267.327 158.924 263.933 158.924C261.855 158.924 260.817 157.581 260.817 154.896C260.817 150.589 262.894 146.131 267.049 141.52C271.254 136.808 275.434 134.452 279.589 134.452C281.565 134.452 282.553 135.313 282.553 137.036C282.553 139.164 281.134 141.292 278.297 143.42C276.827 147.068 276.093 150.817 276.093 154.668C276.093 157.556 276.726 159 277.993 159C279.665 159 282.705 155.808 287.113 149.424C287.417 149.019 287.645 148.816 287.797 148.816C287.949 148.816 288.025 148.917 288.025 149.12C288.025 149.373 287.923 149.627 287.721 149.88C283.161 156.669 279.639 160.064 277.157 160.064ZM264.237 156.568C267.429 156.568 270.519 153.021 273.509 145.928C273.103 146.029 272.723 146.131 272.369 146.232C272.065 146.283 271.786 146.308 271.533 146.308C271.33 146.308 271.229 146.232 271.229 146.08C271.229 145.827 271.583 145.573 272.293 145.32C272.546 145.168 272.875 144.991 273.281 144.788C273.686 144.535 274.142 144.256 274.649 143.952C274.75 143.091 275.282 141.976 276.245 140.608C277.207 139.189 278.119 138.48 278.981 138.48C279.285 138.48 279.437 138.708 279.437 139.164C279.437 139.519 279.31 140.076 279.057 140.836C279.867 139.721 280.273 138.632 280.273 137.568C280.273 136.403 279.741 135.82 278.677 135.82C276.143 135.82 272.825 138.303 268.721 143.268C264.617 148.284 262.565 152.135 262.565 154.82C262.565 155.985 263.122 156.568 264.237 156.568Z" fill="#244D62"/>
<path d="M290.312 159.988C289.958 159.988 289.502 159.836 288.944 159.532C288.387 159.127 288.108 158.797 288.108 158.544C288.26 158.24 288.387 157.911 288.488 157.556C288.64 157.201 288.818 156.847 289.02 156.492C289.932 154.567 290.768 152.641 291.528 150.716C292.288 148.791 292.922 146.865 293.428 144.94C293.935 143.116 294.188 140.963 294.188 138.48C294.087 138.987 293.758 139.747 293.2 140.76C292.694 141.723 292.01 142.939 291.148 144.408C290.338 145.827 289.603 147.017 288.944 147.98C288.336 148.892 287.83 149.627 287.424 150.184C287.424 150.235 287.374 150.26 287.272 150.26C287.019 150.26 286.892 150.159 286.892 149.956C286.892 149.855 286.918 149.779 286.968 149.728C287.323 149.171 287.678 148.588 288.032 147.98C288.438 147.372 288.868 146.713 289.324 146.004C290.692 143.775 291.782 141.773 292.592 140C293.403 138.227 293.986 136.656 294.34 135.288C294.644 133.971 295.151 133.312 295.86 133.312C296.671 133.312 297.076 134.325 297.076 136.352C297.076 140 295.911 144.484 293.58 149.804C296.316 146.359 298.216 144.079 299.28 142.964C302.168 139.873 304.423 138.328 306.044 138.328C307.666 138.328 308.476 139.392 308.476 141.52C308.476 142.989 308.071 144.281 307.26 145.396C306.298 146.815 305.411 147.524 304.6 147.524C304.448 147.524 304.372 147.423 304.372 147.22C304.372 147.22 304.651 146.587 305.208 145.32C305.766 144.053 306.044 142.964 306.044 142.052C306.044 140.684 305.614 140 304.752 140C303.587 140 301.611 141.545 298.824 144.636C296.595 147.169 294.974 149.323 293.96 151.096C293.91 151.248 293.682 151.856 293.276 152.92C292.871 153.984 292.263 155.555 291.452 157.632C291.351 157.936 291.224 158.291 291.072 158.696C290.971 159.051 290.844 159.431 290.692 159.836C290.591 159.937 290.464 159.988 290.312 159.988Z" fill="#244D62"/>
<path d="M318.227 160.824C315.694 160.824 314.427 159.279 314.427 156.188C314.427 153.959 314.984 151.197 316.099 147.904C315.896 147.245 315.542 146.663 315.035 146.156C314.528 145.599 313.87 145.143 313.059 144.788C312.4 144.484 311.716 144.205 311.007 143.952C310.348 143.699 309.664 143.42 308.955 143.116C308.296 142.812 307.967 142.28 307.967 141.52C307.967 140.709 308.322 140.228 309.031 140.076H311.083C313.768 140.076 316.58 139.772 319.519 139.164L319.595 139.012L324.611 127.916C324.864 127.359 325.168 126.649 325.523 125.788C325.878 124.927 326.308 123.939 326.815 122.824C327.22 121.912 328.208 121.456 329.779 121.456C330.843 121.456 331.375 121.709 331.375 122.216C331.375 122.368 330.438 124.496 328.563 128.6C326.638 132.856 325.574 135.085 325.371 135.288C325.27 135.389 325.092 135.567 324.839 135.82C324.636 136.023 324.383 136.251 324.079 136.504C323.876 136.859 323.572 137.467 323.167 138.328C323.927 138.075 325.219 137.644 327.043 137.036C328.918 136.377 331.324 135.541 334.263 134.528C334.466 134.477 334.643 134.452 334.795 134.452C334.947 134.401 335.048 134.376 335.099 134.376C335.302 134.376 335.403 134.427 335.403 134.528C335.403 135.389 331.122 137.036 322.559 139.468C321.546 141.444 320.684 143.141 319.975 144.56C319.266 145.928 318.734 147.043 318.379 147.904C317.72 149.525 317.214 151.096 316.859 152.616C316.555 154.085 316.403 155.529 316.403 156.948C316.403 158.62 316.96 159.456 318.075 159.456C319.443 159.456 321.242 158.493 323.471 156.568C324.636 155.555 325.498 154.82 326.055 154.364C326.612 153.857 326.891 153.604 326.891 153.604C327.043 153.604 327.119 153.68 327.119 153.832C327.119 153.984 327.043 154.212 326.891 154.516C326.08 155.732 324.788 157.024 323.015 158.392C320.938 160.013 319.342 160.824 318.227 160.824ZM316.403 146.84C316.758 145.827 317.138 144.788 317.543 143.724C317.999 142.66 318.48 141.571 318.987 140.456C317.72 140.76 316.428 141.039 315.111 141.292C313.844 141.545 312.578 141.773 311.311 141.976C313.946 143.344 315.643 144.965 316.403 146.84Z" fill="#244D62"/>
<path d="M336.753 159.912C334.372 159.912 332.218 158.924 330.293 156.948C328.418 154.921 327.481 152.717 327.481 150.336C327.481 148.765 327.887 147.98 328.697 147.98C329.204 147.98 329.711 148.36 330.217 149.12C331.737 145.573 333.891 141.571 336.677 137.112C338.451 134.376 340.528 133.008 342.909 133.008C343.416 133.008 343.999 133.185 344.657 133.54C345.366 133.945 345.721 134.376 345.721 134.832C345.721 135.187 345.392 135.364 344.733 135.364C344.682 135.364 344.606 135.364 344.505 135.364C344.404 135.364 344.277 135.339 344.125 135.288H343.517C342.352 135.288 341.364 135.617 340.553 136.276C339.692 136.985 339.261 137.872 339.261 138.936C339.261 139.341 339.337 139.772 339.489 140.228C339.793 141.241 340.097 142.255 340.401 143.268C340.705 144.281 341.009 145.295 341.313 146.308C341.668 147.524 341.921 148.664 342.073 149.728C342.276 150.741 342.377 151.679 342.377 152.54C343.745 152.337 344.91 151.831 345.873 151.02C346.481 150.513 347.292 149.5 348.305 147.98C348.457 147.777 348.609 147.676 348.761 147.676C348.913 147.676 348.989 147.777 348.989 147.98C348.989 148.183 348.938 148.36 348.837 148.512C347.115 151.4 344.986 153.097 342.453 153.604C342.301 155.377 341.769 156.847 340.857 158.012C339.895 159.279 338.527 159.912 336.753 159.912ZM339.261 153.528C339.312 153.325 339.337 153.148 339.337 152.996C339.337 152.844 339.337 152.667 339.337 152.464C339.337 151.805 339.21 150.919 338.957 149.804C338.754 148.639 338.451 147.22 338.045 145.548C337.285 142.356 337.007 140.228 337.209 139.164C335.892 140.532 333.738 144.18 330.749 150.108C331.712 150.615 332.522 151.071 333.181 151.476C333.89 151.831 334.448 152.109 334.853 152.312C336.373 153.021 337.842 153.427 339.261 153.528ZM335.157 157.404C337.184 157.404 338.526 156.416 339.185 154.44C335.132 154.44 332.041 153.604 329.913 151.932C330.014 153.097 330.622 154.288 331.737 155.504C332.852 156.771 333.992 157.404 335.157 157.404Z" fill="#244D62"/>
<path d="M28.125 71.35C28.125 70.45 27.8167 70 27.2 70C27.0667 70 26.95 70.0083 26.85 70.025C26.75 70.0417 26.6833 70.0583 26.65 70.075L26.575 70L26.675 69.175C27.3917 69.075 28.1333 68.9417 28.9 68.775C29.6667 68.6083 30.1583 68.5 30.375 68.45L30.525 68.775C30.4083 68.9417 30.3 69.7917 30.2 71.325C30.1 72.8417 30.0167 74.7833 29.95 77.15C30.7 76.6167 31.3417 76.1917 31.875 75.875C32.425 75.5583 32.7917 75.4 32.975 75.4C33.9083 75.4 34.7417 75.625 35.475 76.075C36.2083 76.525 36.775 77.1583 37.175 77.975C37.5917 78.775 37.8 79.7 37.8 80.75C37.8 81.95 37.5167 83.05 36.95 84.05C36.4 85.05 35.65 85.8417 34.7 86.425C33.75 87.0083 32.7083 87.3 31.575 87.3C30.875 87.3 30.1583 87.25 29.425 87.15C28.7083 87.0667 28.35 87.0167 28.35 87L28.125 86.8V71.35ZM29.825 85.4C30.125 85.55 30.5083 85.675 30.975 85.775C31.4417 85.875 31.875 85.925 32.275 85.925C33.3917 85.925 34.2667 85.55 34.9 84.8C35.55 84.0333 35.875 82.9917 35.875 81.675C35.875 80.8417 35.725 80.075 35.425 79.375C35.1417 78.675 34.7417 78.125 34.225 77.725C33.725 77.3083 33.175 77.1 32.575 77.1C32.2417 77.1 31.8167 77.2333 31.3 77.5C30.7833 77.75 30.3167 78.0667 29.9 78.45L29.825 85.4Z" fill="#AA2842"/>
<path d="M40.9453 78.325C40.9453 77.425 40.637 76.975 40.0203 76.975C39.9037 76.975 39.7787 76.9917 39.6453 77.025C39.512 77.0417 39.4287 77.0583 39.3953 77.075L39.4953 76.15C40.1453 76.05 40.8453 75.9167 41.5953 75.75C42.3453 75.5667 42.837 75.45 43.0703 75.4L43.2203 75.7C43.0537 76.1333 42.9037 77.1167 42.7703 78.65C42.637 80.1833 42.5703 81.675 42.5703 83.125C42.5703 84.7583 43.237 85.575 44.5703 85.575C45.0703 85.575 45.537 85.4583 45.9703 85.225C46.4037 84.975 46.9453 84.6167 47.5953 84.15V78.35C47.5953 77.85 47.5037 77.5 47.3203 77.3C47.137 77.1 46.812 77 46.3453 77L45.7453 77.025L45.8453 76.125C46.5787 76.025 47.3453 75.8917 48.1453 75.725C48.9453 75.5583 49.462 75.45 49.6953 75.4L49.8453 75.7C49.6953 76.0833 49.562 77.125 49.4453 78.825C49.3453 80.525 49.2953 82.375 49.2953 84.375C49.2953 84.7417 49.387 85.025 49.5703 85.225C49.7537 85.425 50.0037 85.525 50.3203 85.525C50.5537 85.525 50.7787 85.4833 50.9953 85.4C51.2287 85.3 51.412 85.2 51.5453 85.1C51.6953 85 51.787 84.9333 51.8203 84.9L52.1703 85.3C52.1037 85.4 51.9453 85.6083 51.6953 85.925C51.462 86.2417 51.1787 86.55 50.8453 86.85C50.5287 87.15 50.2453 87.3 49.9953 87.3C48.6453 87.3 47.9037 86.625 47.7703 85.275L47.6453 85.225C46.8453 85.8417 46.1203 86.3417 45.4703 86.725C44.837 87.1083 44.4037 87.3 44.1703 87.3C43.1037 87.3 42.2787 87.05 41.6953 86.55C41.1287 86.05 40.8453 85.3333 40.8453 84.4L40.9453 78.325Z" fill="#AA2842"/>
<path d="M54.2707 78.125C54.2707 77.675 54.1707 77.3583 53.9707 77.175C53.7707 76.9917 53.3957 76.8917 52.8457 76.875L52.7457 76.725L52.8707 75.975C53.354 75.7417 53.8207 75.4583 54.2707 75.125C54.7374 74.775 55.1124 74.475 55.3957 74.225C55.6957 73.9583 55.8874 73.7833 55.9707 73.7L56.4707 73.9C56.454 73.9833 56.429 74.1833 56.3957 74.5C56.3624 74.8167 56.3207 75.2417 56.2707 75.775L59.9457 75.7L60.0207 75.775L59.7957 77.1L56.1707 77.025C56.054 78.8583 55.9957 80.9417 55.9957 83.275C55.9957 84.125 56.1374 84.725 56.4207 85.075C56.7207 85.425 57.229 85.6 57.9457 85.6C58.1957 85.6 58.4457 85.5667 58.6957 85.5C58.9457 85.4333 59.154 85.3667 59.3207 85.3C59.4874 85.2167 59.5957 85.1667 59.6457 85.15L59.8957 85.8C59.7957 85.8833 59.579 86.0417 59.2457 86.275C58.929 86.5083 58.579 86.7417 58.1957 86.975C57.829 87.1917 57.554 87.3 57.3707 87.3C56.2374 87.3 55.4374 87.075 54.9707 86.625C54.504 86.1583 54.2707 85.375 54.2707 84.275V78.125Z" fill="#AA2842"/>
<path d="M72.6514 79.7C72.6514 78.8667 72.4597 78.2167 72.0764 77.75C71.693 77.2833 71.1514 77.05 70.4514 77.05C69.9847 77.05 69.468 77.1667 68.9014 77.4C68.3347 77.6333 67.8514 77.9333 67.4514 78.3L67.3264 78.225L67.0264 77.15C67.8764 76.65 68.6847 76.2333 69.4514 75.9C70.2347 75.5667 70.7847 75.4 71.1014 75.4C72.1847 75.4 73.0347 75.6833 73.6514 76.25C74.268 76.8167 74.5764 77.6083 74.5764 78.625C74.5764 78.9917 74.518 79.7417 74.4014 80.875C74.218 82.7083 74.1264 83.875 74.1264 84.375C74.1264 84.7417 74.218 85.025 74.4014 85.225C74.5847 85.425 74.8347 85.525 75.1514 85.525C75.3847 85.525 75.6347 85.4667 75.9014 85.35C76.1847 85.2333 76.4347 85.0833 76.6514 84.9L77.0014 85.3C76.7347 85.7667 76.393 86.1917 75.9764 86.575C75.5764 86.9417 75.193 87.1833 74.8264 87.3C73.4764 87.3 72.7347 86.625 72.6014 85.275L72.5014 85.25C71.9014 85.85 71.3514 86.325 70.8514 86.675C70.368 87.025 70.0014 87.2 69.7514 87.2C68.818 87.2 68.0514 86.9083 67.4514 86.325C66.8514 85.7417 66.5514 85 66.5514 84.1C66.5514 83.6167 66.668 83.1917 66.9014 82.825C67.1514 82.4583 67.4764 82.2167 67.8764 82.1L72.6014 80.8L72.6514 79.7ZM69.1764 82.775C68.693 82.925 68.4514 83.275 68.4514 83.825C68.4514 84.3083 68.6097 84.7083 68.9264 85.025C69.2597 85.3417 69.6764 85.5 70.1764 85.5C70.493 85.5 70.8597 85.3917 71.2764 85.175C71.7097 84.9417 72.1014 84.65 72.4514 84.3L72.5514 81.75L69.1764 82.775Z" fill="#AA2842"/>
<path d="M86.5006 87.3C85.9673 87.3 85.4756 87.2583 85.0256 87.175C84.5923 87.1083 84.2506 87.0333 84.0006 86.95C83.7506 86.8667 83.5923 86.8083 83.5256 86.775L83.4506 86.6C83.5006 86.35 83.5589 85.8333 83.6256 85.05C83.6923 84.2667 83.7339 83.6667 83.7506 83.25L84.6256 83.125C84.6256 84.225 84.8089 85 85.1756 85.45C85.5423 85.9 86.1673 86.125 87.0506 86.125C87.6839 86.125 88.2173 85.9833 88.6506 85.7C89.0839 85.4167 89.3006 85.0667 89.3006 84.65C89.3006 84.2333 89.1006 83.8583 88.7006 83.525C88.3173 83.175 87.5506 82.6917 86.4006 82.075C85.4506 81.5917 84.7589 81.1083 84.3256 80.625C83.8923 80.125 83.6756 79.575 83.6756 78.975C83.6756 78.3083 83.8756 77.7 84.2756 77.15C84.6756 76.6 85.2256 76.175 85.9256 75.875C86.6256 75.5583 87.4089 75.4 88.2756 75.4C88.6756 75.4 89.0589 75.4333 89.4256 75.5C89.7923 75.55 90.0923 75.6083 90.3256 75.675C90.5589 75.7417 90.7089 75.7833 90.7756 75.8L90.8256 75.925C90.7923 76.0917 90.7173 76.475 90.6006 77.075C90.4839 77.6583 90.4006 78.2917 90.3506 78.975L89.4256 79.05C89.4256 79 89.4339 78.9 89.4506 78.75C89.4673 78.6 89.4756 78.4583 89.4756 78.325C89.4756 77.725 89.3089 77.2917 88.9756 77.025C88.6589 76.7417 88.1423 76.6 87.4256 76.6C86.8589 76.6 86.3756 76.7333 85.9756 77C85.5923 77.2667 85.4006 77.5917 85.4006 77.975C85.4006 78.375 85.5673 78.75 85.9006 79.1C86.2506 79.45 86.8089 79.825 87.5756 80.225C88.9256 80.9417 89.8423 81.5417 90.3256 82.025C90.8256 82.5083 91.0756 83.0667 91.0756 83.7C91.0756 84.3333 90.8589 84.925 90.4256 85.475C90.0089 86.025 89.4506 86.4667 88.7506 86.8C88.0506 87.1333 87.3006 87.3 86.5006 87.3Z" fill="#AA2842"/>
<path d="M95.6092 71.95C95.2425 71.95 94.9425 71.8333 94.7092 71.6C94.4925 71.3667 94.3842 71.0583 94.3842 70.675C94.3842 70.2583 94.5259 69.9083 94.8092 69.625C95.0925 69.3417 95.4425 69.2 95.8592 69.2C96.2092 69.2 96.5009 69.325 96.7342 69.575C96.9675 69.8083 97.0842 70.1083 97.0842 70.475C97.0842 70.8917 96.9425 71.2417 96.6592 71.525C96.3759 71.8083 96.0258 71.95 95.6092 71.95ZM93.4842 86.275C93.9842 86.1417 94.3425 85.95 94.5592 85.7C94.7759 85.4333 94.8842 85.0833 94.8842 84.65V78.3C94.8842 77.4 94.5759 76.95 93.9592 76.95C93.8425 76.95 93.7175 76.9667 93.5842 77C93.4509 77.0167 93.3675 77.0333 93.3342 77.05L93.4342 76.125C94.1342 76.025 94.8509 75.8917 95.5842 75.725C96.3342 75.5583 96.8175 75.45 97.0342 75.4L97.1592 75.7C97.0092 76.05 96.8759 77.125 96.7592 78.925C96.6425 80.7083 96.5842 82.5833 96.5842 84.55C96.5842 85.0333 96.6509 85.3917 96.7842 85.625C96.9175 85.8417 97.1425 85.95 97.4592 85.95C97.6425 85.95 97.8175 85.9417 97.9842 85.925C98.1509 85.9083 98.2675 85.9 98.3342 85.9L98.3842 86L98.1842 87.075C98.0342 87.0583 97.7509 87.0417 97.3342 87.025C96.9175 87.0083 96.4592 87 95.9592 87C95.5259 87 95.0259 87.0417 94.4592 87.125C93.9092 87.2083 93.5508 87.2667 93.3842 87.3L93.4842 86.275Z" fill="#AA2842"/>
<path d="M107.465 86.275C107.965 86.1417 108.323 85.95 108.54 85.7C108.757 85.4333 108.865 85.0833 108.865 84.65L108.965 79.7C108.965 78.8667 108.782 78.225 108.415 77.775C108.065 77.325 107.557 77.1 106.89 77.1C106.357 77.1 105.815 77.2417 105.265 77.525C104.715 77.7917 104.232 78.0833 103.815 78.4C103.665 81.85 103.59 83.9 103.59 84.55C103.59 85.0667 103.657 85.4333 103.79 85.65C103.923 85.85 104.157 85.95 104.49 85.95C104.673 85.95 104.848 85.9417 105.015 85.925C105.182 85.9083 105.298 85.9 105.365 85.9L105.415 86L105.19 87.075C105.04 87.0583 104.748 87.0417 104.315 87.025C103.882 87.0083 103.415 87 102.915 87C102.482 87 101.998 87.0167 101.465 87.05C100.948 87.1 100.607 87.1333 100.44 87.15L100.565 86.125C101.048 86.0417 101.39 85.8917 101.59 85.675C101.79 85.4583 101.89 85.1167 101.89 84.65V78.55C101.89 77.9833 101.798 77.5917 101.615 77.375C101.432 77.1417 101.115 77.025 100.665 77.025H100.39L100.315 76.925L100.39 76.1C101.107 75.9833 101.815 75.85 102.515 75.7C103.232 75.5333 103.69 75.425 103.89 75.375L104.04 75.575C104.007 75.675 103.957 75.8917 103.89 76.225C103.823 76.5417 103.782 76.875 103.765 77.225L103.815 77.3C105.715 76.0333 106.94 75.4 107.49 75.4C108.54 75.4 109.373 75.6917 109.99 76.275C110.607 76.8583 110.915 77.6417 110.915 78.625C110.915 78.7917 110.865 79.5583 110.765 80.925C110.632 82.6583 110.565 83.8667 110.565 84.55C110.565 85.0333 110.632 85.3917 110.765 85.625C110.898 85.8417 111.123 85.95 111.44 85.95C111.623 85.95 111.798 85.9417 111.965 85.925C112.132 85.9083 112.248 85.9 112.315 85.9L112.365 86L112.165 87.075C112.015 87.0583 111.732 87.0417 111.315 87.025C110.898 87.0083 110.44 87 109.94 87C109.507 87 109.007 87.0417 108.44 87.125C107.89 87.2083 107.532 87.2667 107.365 87.3L107.465 86.275Z" fill="#AA2842"/>
<path d="M119.078 83.75C118.661 83.75 118.186 83.6917 117.653 83.575C117.27 83.7917 116.995 83.9917 116.828 84.175C116.678 84.3417 116.603 84.5167 116.603 84.7C116.603 85.0833 116.861 85.35 117.378 85.5C117.895 85.65 118.703 85.7917 119.803 85.925C120.886 86.0583 121.761 86.2 122.428 86.35C123.095 86.4833 123.67 86.7333 124.153 87.1C124.636 87.4667 124.878 87.975 124.878 88.625C124.878 89.3583 124.578 90.0667 123.978 90.75C123.378 91.4333 122.595 91.9833 121.628 92.4C120.661 92.8333 119.67 93.05 118.653 93.05C117.47 93.05 116.545 92.7583 115.878 92.175C115.228 91.5917 114.903 90.775 114.903 89.725C115.12 89.425 115.453 89.0667 115.903 88.65C116.37 88.25 116.861 87.8583 117.378 87.475V87.325C116.495 87.175 115.82 86.8917 115.353 86.475C114.886 86.0417 114.653 85.5083 114.653 84.875C115.286 84.275 115.986 83.7417 116.753 83.275V83.175C116.186 82.875 115.736 82.4333 115.403 81.85C115.07 81.2667 114.903 80.625 114.903 79.925C114.903 79.125 115.111 78.375 115.528 77.675C115.961 76.975 116.528 76.425 117.228 76.025C117.945 75.6083 118.72 75.4 119.553 75.4C119.936 75.4 120.411 75.45 120.978 75.55C121.395 75.6333 121.736 75.675 122.003 75.675C122.703 75.5917 123.853 75.3417 125.453 74.925L125.528 75.025L125.253 76.425C124.586 76.525 123.87 76.6 123.103 76.65L123.003 76.775C123.67 77.5083 124.003 78.3583 124.003 79.325C124.003 80.125 123.778 80.8667 123.328 81.55C122.895 82.2333 122.303 82.775 121.553 83.175C120.803 83.5583 119.978 83.75 119.078 83.75ZM119.653 82.65C120.42 82.65 121.02 82.4083 121.453 81.925C121.903 81.4417 122.128 80.775 122.128 79.925C122.128 78.9583 121.861 78.175 121.328 77.575C120.795 76.975 120.103 76.675 119.253 76.675C118.486 76.675 117.878 76.925 117.428 77.425C116.995 77.925 116.778 78.6 116.778 79.45C116.778 80.4 117.045 81.175 117.578 81.775C118.111 82.3583 118.803 82.65 119.653 82.65ZM119.553 91.825C120.203 91.825 120.811 91.7083 121.378 91.475C121.961 91.2583 122.42 90.95 122.753 90.55C123.103 90.1667 123.278 89.7583 123.278 89.325C123.278 88.9917 123.145 88.725 122.878 88.525C122.611 88.325 122.136 88.15 121.453 88C120.786 87.85 119.786 87.6917 118.453 87.525C118.02 87.8083 117.653 88.1833 117.353 88.65C117.053 89.1167 116.903 89.55 116.903 89.95C116.903 90.5167 117.145 90.9667 117.628 91.3C118.128 91.65 118.77 91.825 119.553 91.825Z" fill="#AA2842"/>
<path d="M126.751 86.275C127.217 86.1417 127.542 85.975 127.726 85.775C127.926 85.575 128.042 85.3333 128.076 85.05C128.126 84.7667 128.151 84.2917 128.151 83.625V71.35C128.151 70.45 127.842 70 127.226 70C127.109 70 126.984 70.0167 126.851 70.05C126.717 70.0667 126.634 70.0833 126.601 70.1C126.601 70 126.617 69.85 126.651 69.65L126.701 69.175C127.417 69.075 128.159 68.9417 128.926 68.775C129.692 68.6083 130.184 68.5 130.401 68.45L130.551 68.775C130.367 69.0583 130.201 70.8333 130.051 74.1C129.917 77.3667 129.851 80.85 129.851 84.55C129.851 85.05 129.917 85.4083 130.051 85.625C130.184 85.8417 130.409 85.95 130.726 85.95C130.909 85.95 131.084 85.9417 131.251 85.925C131.417 85.9083 131.534 85.9 131.601 85.9L131.651 86L131.451 87.075C131.301 87.0583 131.017 87.0417 130.601 87.025C130.184 87.0083 129.726 87 129.226 87C128.792 87 128.292 87.0417 127.726 87.125C127.176 87.2083 126.817 87.2667 126.651 87.3L126.751 86.275Z" fill="#AA2842"/>
<path d="M134.854 80.95C134.854 82.35 135.187 83.475 135.854 84.325C136.537 85.175 137.437 85.6 138.554 85.6C139.021 85.6 139.479 85.5417 139.929 85.425C140.379 85.3083 140.754 85.1917 141.054 85.075C141.354 84.9417 141.546 84.8583 141.629 84.825L141.779 84.875L142.054 85.6C141.937 85.6833 141.662 85.8667 141.229 86.15C140.812 86.4167 140.321 86.675 139.754 86.925C139.187 87.175 138.679 87.3 138.229 87.3C137.196 87.3 136.279 87.075 135.479 86.625C134.679 86.1583 134.062 85.5083 133.629 84.675C133.196 83.825 132.979 82.8583 132.979 81.775C132.979 80.6583 133.229 79.6083 133.729 78.625C134.246 77.6417 134.929 76.8583 135.779 76.275C136.629 75.6917 137.537 75.4 138.504 75.4C139.721 75.4 140.646 75.7083 141.279 76.325C141.912 76.9417 142.229 77.8417 142.229 79.025C142.229 79.2917 142.204 79.55 142.154 79.8C142.121 80.0333 142.096 80.1833 142.079 80.25L141.754 80.55H134.854V80.95ZM139.479 79.4C139.729 79.3667 139.896 79.3083 139.979 79.225C140.062 79.1417 140.104 78.975 140.104 78.725C140.104 78.0583 139.921 77.55 139.554 77.2C139.204 76.85 138.696 76.675 138.029 76.675C137.246 76.675 136.571 76.9417 136.004 77.475C135.454 78.0083 135.104 78.725 134.954 79.625L139.479 79.4Z" fill="#AA2842"/>
<path d="M150.389 78.125C150.389 77.675 150.289 77.3583 150.089 77.175C149.889 76.9917 149.514 76.8917 148.964 76.875L148.864 76.725L148.989 75.975C149.472 75.7417 149.939 75.4583 150.389 75.125C150.856 74.775 151.231 74.475 151.514 74.225C151.814 73.9583 152.006 73.7833 152.089 73.7L152.589 73.9C152.572 73.9833 152.547 74.1833 152.514 74.5C152.481 74.8167 152.439 75.2417 152.389 75.775L156.064 75.7L156.139 75.775L155.914 77.1L152.289 77.025C152.172 78.8583 152.114 80.9417 152.114 83.275C152.114 84.125 152.256 84.725 152.539 85.075C152.839 85.425 153.347 85.6 154.064 85.6C154.314 85.6 154.564 85.5667 154.814 85.5C155.064 85.4333 155.272 85.3667 155.439 85.3C155.606 85.2167 155.714 85.1667 155.764 85.15L156.014 85.8C155.914 85.8833 155.697 86.0417 155.364 86.275C155.047 86.5083 154.697 86.7417 154.314 86.975C153.947 87.1917 153.672 87.3 153.489 87.3C152.356 87.3 151.556 87.075 151.089 86.625C150.622 86.1583 150.389 85.375 150.389 84.275V78.125Z" fill="#AA2842"/>
<path d="M157.466 86.025C157.949 85.975 158.283 85.85 158.466 85.65C158.666 85.45 158.766 85.1167 158.766 84.65V71.35C158.766 70.9 158.691 70.575 158.541 70.375C158.391 70.1583 158.158 70.05 157.841 70.05H157.316L157.216 69.975L157.316 69.175C158.032 69.075 158.774 68.9417 159.541 68.775C160.307 68.6083 160.799 68.5 161.016 68.45L161.166 68.775C161.049 68.9583 160.932 69.8417 160.816 71.425C160.716 72.9917 160.632 74.9667 160.566 77.35C162.466 76.05 163.716 75.4 164.316 75.4C165.399 75.4 166.241 75.6833 166.841 76.25C167.441 76.8167 167.741 77.6083 167.741 78.625C167.741 78.9583 167.682 79.725 167.566 80.925C167.416 82.875 167.341 84.0833 167.341 84.55C167.341 85.0333 167.408 85.3917 167.541 85.625C167.674 85.8417 167.899 85.95 168.216 85.95C168.399 85.95 168.574 85.9417 168.741 85.925C168.908 85.9083 169.024 85.9 169.091 85.9L169.141 86L168.941 87.075C168.791 87.0583 168.508 87.0417 168.091 87.025C167.674 87.0083 167.216 87 166.716 87C166.283 87 165.783 87.0417 165.216 87.125C164.666 87.2083 164.307 87.2667 164.141 87.3L164.241 86.275C164.741 86.1417 165.099 85.95 165.316 85.7C165.532 85.4333 165.641 85.0833 165.641 84.65L165.791 79.7C165.791 78.8667 165.607 78.225 165.241 77.775C164.891 77.325 164.383 77.1 163.716 77.1C163.149 77.1 162.566 77.2583 161.966 77.575C161.383 77.875 160.908 78.175 160.541 78.475C160.491 80.3917 160.466 82.4167 160.466 84.55C160.466 85.0667 160.533 85.4333 160.666 85.65C160.799 85.85 161.033 85.95 161.366 85.95C161.549 85.95 161.724 85.9417 161.891 85.925C162.057 85.9083 162.174 85.9 162.241 85.9L162.291 86L162.066 87.075C161.916 87.0583 161.624 87.0417 161.191 87.025C160.757 87.0083 160.291 87 159.791 87C159.241 87 158.732 87.0083 158.266 87.025C157.799 87.0417 157.482 87.05 157.316 87.05L157.466 86.025Z" fill="#AA2842"/>
<path d="M175.695 87.3C174.745 87.3 173.904 87.0667 173.17 86.6C172.437 86.1333 171.862 85.4833 171.445 84.65C171.045 83.8 170.845 82.8333 170.845 81.75C170.845 80.5833 171.095 79.5167 171.595 78.55C172.112 77.5667 172.812 76.8 173.695 76.25C174.579 75.6833 175.562 75.4 176.645 75.4C177.579 75.4 178.412 75.6333 179.145 76.1C179.895 76.5667 180.47 77.225 180.87 78.075C181.287 78.9083 181.495 79.8667 181.495 80.95C181.495 82.1167 181.237 83.1917 180.72 84.175C180.22 85.1417 179.529 85.9083 178.645 86.475C177.762 87.025 176.779 87.3 175.695 87.3ZM176.395 86.075C177.329 86.075 178.07 85.7 178.62 84.95C179.17 84.1833 179.445 83.15 179.445 81.85C179.445 80.8667 179.295 79.9917 178.995 79.225C178.695 78.4417 178.27 77.8333 177.72 77.4C177.187 76.9667 176.579 76.75 175.895 76.75C174.962 76.75 174.22 77.1333 173.67 77.9C173.12 78.6667 172.845 79.7083 172.845 81.025C172.845 82.0083 172.995 82.8833 173.295 83.65C173.595 84.4167 174.012 85.0167 174.545 85.45C175.079 85.8667 175.695 86.075 176.395 86.075Z" fill="#AA2842"/>
<path d="M184.646 78.325C184.646 77.425 184.338 76.975 183.721 76.975C183.605 76.975 183.48 76.9917 183.346 77.025C183.213 77.0417 183.13 77.0583 183.096 77.075L183.196 76.15C183.846 76.05 184.546 75.9167 185.296 75.75C186.046 75.5667 186.538 75.45 186.771 75.4L186.921 75.7C186.755 76.1333 186.605 77.1167 186.471 78.65C186.338 80.1833 186.271 81.675 186.271 83.125C186.271 84.7583 186.938 85.575 188.271 85.575C188.771 85.575 189.238 85.4583 189.671 85.225C190.105 84.975 190.646 84.6167 191.296 84.15V78.35C191.296 77.85 191.205 77.5 191.021 77.3C190.838 77.1 190.513 77 190.046 77L189.446 77.025L189.546 76.125C190.28 76.025 191.046 75.8917 191.846 75.725C192.646 75.5583 193.163 75.45 193.396 75.4L193.546 75.7C193.396 76.0833 193.263 77.125 193.146 78.825C193.046 80.525 192.996 82.375 192.996 84.375C192.996 84.7417 193.088 85.025 193.271 85.225C193.455 85.425 193.705 85.525 194.021 85.525C194.255 85.525 194.48 85.4833 194.696 85.4C194.93 85.3 195.113 85.2 195.246 85.1C195.396 85 195.488 84.9333 195.521 84.9L195.871 85.3C195.805 85.4 195.646 85.6083 195.396 85.925C195.163 86.2417 194.88 86.55 194.546 86.85C194.23 87.15 193.946 87.3 193.696 87.3C192.346 87.3 191.605 86.625 191.471 85.275L191.346 85.225C190.546 85.8417 189.821 86.3417 189.171 86.725C188.538 87.1083 188.105 87.3 187.871 87.3C186.805 87.3 185.98 87.05 185.396 86.55C184.83 86.05 184.546 85.3333 184.546 84.4L184.646 78.325Z" fill="#AA2842"/>
<path d="M201.622 83.75C201.205 83.75 200.73 83.6917 200.197 83.575C199.814 83.7917 199.539 83.9917 199.372 84.175C199.222 84.3417 199.147 84.5167 199.147 84.7C199.147 85.0833 199.405 85.35 199.922 85.5C200.439 85.65 201.247 85.7917 202.347 85.925C203.43 86.0583 204.305 86.2 204.972 86.35C205.639 86.4833 206.214 86.7333 206.697 87.1C207.18 87.4667 207.422 87.975 207.422 88.625C207.422 89.3583 207.122 90.0667 206.522 90.75C205.922 91.4333 205.139 91.9833 204.172 92.4C203.205 92.8333 202.214 93.05 201.197 93.05C200.014 93.05 199.089 92.7583 198.422 92.175C197.772 91.5917 197.447 90.775 197.447 89.725C197.664 89.425 197.997 89.0667 198.447 88.65C198.914 88.25 199.405 87.8583 199.922 87.475V87.325C199.039 87.175 198.364 86.8917 197.897 86.475C197.43 86.0417 197.197 85.5083 197.197 84.875C197.83 84.275 198.53 83.7417 199.297 83.275V83.175C198.73 82.875 198.28 82.4333 197.947 81.85C197.614 81.2667 197.447 80.625 197.447 79.925C197.447 79.125 197.655 78.375 198.072 77.675C198.505 76.975 199.072 76.425 199.772 76.025C200.489 75.6083 201.264 75.4 202.097 75.4C202.48 75.4 202.955 75.45 203.522 75.55C203.939 75.6333 204.28 75.675 204.547 75.675C205.247 75.5917 206.397 75.3417 207.997 74.925L208.072 75.025L207.797 76.425C207.13 76.525 206.414 76.6 205.647 76.65L205.547 76.775C206.214 77.5083 206.547 78.3583 206.547 79.325C206.547 80.125 206.322 80.8667 205.872 81.55C205.439 82.2333 204.847 82.775 204.097 83.175C203.347 83.5583 202.522 83.75 201.622 83.75ZM202.197 82.65C202.964 82.65 203.564 82.4083 203.997 81.925C204.447 81.4417 204.672 80.775 204.672 79.925C204.672 78.9583 204.405 78.175 203.872 77.575C203.339 76.975 202.647 76.675 201.797 76.675C201.03 76.675 200.422 76.925 199.972 77.425C199.539 77.925 199.322 78.6 199.322 79.45C199.322 80.4 199.589 81.175 200.122 81.775C200.655 82.3583 201.347 82.65 202.197 82.65ZM202.097 91.825C202.747 91.825 203.355 91.7083 203.922 91.475C204.505 91.2583 204.964 90.95 205.297 90.55C205.647 90.1667 205.822 89.7583 205.822 89.325C205.822 88.9917 205.689 88.725 205.422 88.525C205.155 88.325 204.68 88.15 203.997 88C203.33 87.85 202.33 87.6917 200.997 87.525C200.564 87.8083 200.197 88.1833 199.897 88.65C199.597 89.1167 199.447 89.55 199.447 89.95C199.447 90.5167 199.689 90.9667 200.172 91.3C200.672 91.65 201.314 91.825 202.097 91.825Z" fill="#AA2842"/>
<path d="M209.395 86.025C209.878 85.975 210.211 85.85 210.395 85.65C210.595 85.45 210.695 85.1167 210.695 84.65V71.35C210.695 70.9 210.62 70.575 210.47 70.375C210.32 70.1583 210.086 70.05 209.77 70.05H209.245L209.145 69.975L209.245 69.175C209.961 69.075 210.703 68.9417 211.47 68.775C212.236 68.6083 212.728 68.5 212.945 68.45L213.095 68.775C212.978 68.9583 212.861 69.8417 212.745 71.425C212.645 72.9917 212.561 74.9667 212.495 77.35C214.395 76.05 215.645 75.4 216.245 75.4C217.328 75.4 218.17 75.6833 218.77 76.25C219.37 76.8167 219.67 77.6083 219.67 78.625C219.67 78.9583 219.611 79.725 219.495 80.925C219.345 82.875 219.27 84.0833 219.27 84.55C219.27 85.0333 219.336 85.3917 219.47 85.625C219.603 85.8417 219.828 85.95 220.145 85.95C220.328 85.95 220.503 85.9417 220.67 85.925C220.836 85.9083 220.953 85.9 221.02 85.9L221.07 86L220.87 87.075C220.72 87.0583 220.436 87.0417 220.02 87.025C219.603 87.0083 219.145 87 218.645 87C218.211 87 217.711 87.0417 217.145 87.125C216.595 87.2083 216.236 87.2667 216.07 87.3L216.17 86.275C216.67 86.1417 217.028 85.95 217.245 85.7C217.461 85.4333 217.57 85.0833 217.57 84.65L217.72 79.7C217.72 78.8667 217.536 78.225 217.17 77.775C216.82 77.325 216.311 77.1 215.645 77.1C215.078 77.1 214.495 77.2583 213.895 77.575C213.311 77.875 212.836 78.175 212.47 78.475C212.42 80.3917 212.395 82.4167 212.395 84.55C212.395 85.0667 212.461 85.4333 212.595 85.65C212.728 85.85 212.961 85.95 213.295 85.95C213.478 85.95 213.653 85.9417 213.82 85.925C213.986 85.9083 214.103 85.9 214.17 85.9L214.22 86L213.995 87.075C213.845 87.0583 213.553 87.0417 213.12 87.025C212.686 87.0083 212.22 87 211.72 87C211.17 87 210.661 87.0083 210.195 87.025C209.728 87.0417 209.411 87.05 209.245 87.05L209.395 86.025Z" fill="#AA2842"/>
<path d="M223.924 78.125C223.924 77.675 223.824 77.3583 223.624 77.175C223.424 76.9917 223.049 76.8917 222.499 76.875L222.399 76.725L222.524 75.975C223.007 75.7417 223.474 75.4583 223.924 75.125C224.391 74.775 224.766 74.475 225.049 74.225C225.349 73.9583 225.541 73.7833 225.624 73.7L226.124 73.9C226.107 73.9833 226.082 74.1833 226.049 74.5C226.016 74.8167 225.974 75.2417 225.924 75.775L229.599 75.7L229.674 75.775L229.449 77.1L225.824 77.025C225.707 78.8583 225.649 80.9417 225.649 83.275C225.649 84.125 225.791 84.725 226.074 85.075C226.374 85.425 226.882 85.6 227.599 85.6C227.849 85.6 228.099 85.5667 228.349 85.5C228.599 85.4333 228.807 85.3667 228.974 85.3C229.141 85.2167 229.249 85.1667 229.299 85.15L229.549 85.8C229.449 85.8833 229.232 86.0417 228.899 86.275C228.582 86.5083 228.232 86.7417 227.849 86.975C227.482 87.1917 227.207 87.3 227.024 87.3C225.891 87.3 225.091 87.075 224.624 86.625C224.157 86.1583 223.924 85.375 223.924 84.275V78.125Z" fill="#AA2842"/>
<path d="M190.05 184.125C190.05 183.675 189.95 183.358 189.75 183.175C189.55 182.992 189.175 182.892 188.625 182.875L188.525 182.725L188.65 181.975C189.133 181.742 189.6 181.458 190.05 181.125C190.517 180.775 190.892 180.475 191.175 180.225C191.475 179.958 191.667 179.783 191.75 179.7L192.25 179.9C192.233 179.983 192.208 180.183 192.175 180.5C192.142 180.817 192.1 181.242 192.05 181.775L195.725 181.7L195.8 181.775L195.575 183.1L191.95 183.025C191.833 184.858 191.775 186.942 191.775 189.275C191.775 190.125 191.917 190.725 192.2 191.075C192.5 191.425 193.008 191.6 193.725 191.6C193.975 191.6 194.225 191.567 194.475 191.5C194.725 191.433 194.933 191.367 195.1 191.3C195.267 191.217 195.375 191.167 195.425 191.15L195.675 191.8C195.575 191.883 195.358 192.042 195.025 192.275C194.708 192.508 194.358 192.742 193.975 192.975C193.608 193.192 193.333 193.3 193.15 193.3C192.017 193.3 191.217 193.075 190.75 192.625C190.283 192.158 190.05 191.375 190.05 190.275V184.125Z" fill="#AA2842"/>
<path d="M197.127 192.025C197.61 191.975 197.944 191.85 198.127 191.65C198.327 191.45 198.427 191.117 198.427 190.65V177.35C198.427 176.9 198.352 176.575 198.202 176.375C198.052 176.158 197.819 176.05 197.502 176.05H196.977L196.877 175.975L196.977 175.175C197.694 175.075 198.435 174.942 199.202 174.775C199.969 174.608 200.46 174.5 200.677 174.45L200.827 174.775C200.71 174.958 200.594 175.842 200.477 177.425C200.377 178.992 200.294 180.967 200.227 183.35C202.127 182.05 203.377 181.4 203.977 181.4C205.06 181.4 205.902 181.683 206.502 182.25C207.102 182.817 207.402 183.608 207.402 184.625C207.402 184.958 207.344 185.725 207.227 186.925C207.077 188.875 207.002 190.083 207.002 190.55C207.002 191.033 207.069 191.392 207.202 191.625C207.335 191.842 207.56 191.95 207.877 191.95C208.06 191.95 208.235 191.942 208.402 191.925C208.569 191.908 208.685 191.9 208.752 191.9L208.802 192L208.602 193.075C208.452 193.058 208.169 193.042 207.752 193.025C207.335 193.008 206.877 193 206.377 193C205.944 193 205.444 193.042 204.877 193.125C204.327 193.208 203.969 193.267 203.802 193.3L203.902 192.275C204.402 192.142 204.76 191.95 204.977 191.7C205.194 191.433 205.302 191.083 205.302 190.65L205.452 185.7C205.452 184.867 205.269 184.225 204.902 183.775C204.552 183.325 204.044 183.1 203.377 183.1C202.81 183.1 202.227 183.258 201.627 183.575C201.044 183.875 200.569 184.175 200.202 184.475C200.152 186.392 200.127 188.417 200.127 190.55C200.127 191.067 200.194 191.433 200.327 191.65C200.46 191.85 200.694 191.95 201.027 191.95C201.21 191.95 201.385 191.942 201.552 191.925C201.719 191.908 201.835 191.9 201.902 191.9L201.952 192L201.727 193.075C201.577 193.058 201.285 193.042 200.852 193.025C200.419 193.008 199.952 193 199.452 193C198.902 193 198.394 193.008 197.927 193.025C197.46 193.042 197.144 193.05 196.977 193.05L197.127 192.025Z" fill="#AA2842"/>
<path d="M216.731 185.7C216.731 184.867 216.54 184.217 216.156 183.75C215.773 183.283 215.231 183.05 214.531 183.05C214.065 183.05 213.548 183.167 212.981 183.4C212.415 183.633 211.931 183.933 211.531 184.3L211.406 184.225L211.106 183.15C211.956 182.65 212.765 182.233 213.531 181.9C214.315 181.567 214.865 181.4 215.181 181.4C216.265 181.4 217.115 181.683 217.731 182.25C218.348 182.817 218.656 183.608 218.656 184.625C218.656 184.992 218.598 185.742 218.481 186.875C218.298 188.708 218.206 189.875 218.206 190.375C218.206 190.742 218.298 191.025 218.481 191.225C218.665 191.425 218.915 191.525 219.231 191.525C219.465 191.525 219.715 191.467 219.981 191.35C220.265 191.233 220.515 191.083 220.731 190.9L221.081 191.3C220.815 191.767 220.473 192.192 220.056 192.575C219.656 192.942 219.273 193.183 218.906 193.3C217.556 193.3 216.815 192.625 216.681 191.275L216.581 191.25C215.981 191.85 215.431 192.325 214.931 192.675C214.448 193.025 214.081 193.2 213.831 193.2C212.898 193.2 212.131 192.908 211.531 192.325C210.931 191.742 210.631 191 210.631 190.1C210.631 189.617 210.748 189.192 210.981 188.825C211.231 188.458 211.556 188.217 211.956 188.1L216.681 186.8L216.731 185.7ZM213.256 188.775C212.773 188.925 212.531 189.275 212.531 189.825C212.531 190.308 212.69 190.708 213.006 191.025C213.34 191.342 213.756 191.5 214.256 191.5C214.573 191.5 214.94 191.392 215.356 191.175C215.79 190.942 216.181 190.65 216.531 190.3L216.631 187.75L213.256 188.775Z" fill="#AA2842"/>
<path d="M223.302 184.125C223.302 183.675 223.202 183.358 223.002 183.175C222.802 182.992 222.427 182.892 221.877 182.875L221.777 182.725L221.902 181.975C222.385 181.742 222.852 181.458 223.302 181.125C223.769 180.775 224.144 180.475 224.427 180.225C224.727 179.958 224.919 179.783 225.002 179.7L225.502 179.9C225.485 179.983 225.46 180.183 225.427 180.5C225.394 180.817 225.352 181.242 225.302 181.775L228.977 181.7L229.052 181.775L228.827 183.1L225.202 183.025C225.085 184.858 225.027 186.942 225.027 189.275C225.027 190.125 225.169 190.725 225.452 191.075C225.752 191.425 226.26 191.6 226.977 191.6C227.227 191.6 227.477 191.567 227.727 191.5C227.977 191.433 228.185 191.367 228.352 191.3C228.519 191.217 228.627 191.167 228.677 191.15L228.927 191.8C228.827 191.883 228.61 192.042 228.277 192.275C227.96 192.508 227.61 192.742 227.227 192.975C226.86 193.192 226.585 193.3 226.402 193.3C225.269 193.3 224.469 193.075 224.002 192.625C223.535 192.158 223.302 191.375 223.302 190.275V184.125Z" fill="#AA2842"/>
<path d="M236.683 177.35C236.683 176.45 236.374 176 235.758 176C235.624 176 235.508 176.008 235.408 176.025C235.308 176.042 235.241 176.058 235.208 176.075L235.133 176L235.233 175.175C235.949 175.075 236.691 174.942 237.458 174.775C238.224 174.608 238.716 174.5 238.933 174.45L239.083 174.775C238.966 174.942 238.858 175.792 238.758 177.325C238.658 178.842 238.574 180.783 238.508 183.15C239.258 182.617 239.899 182.192 240.433 181.875C240.983 181.558 241.349 181.4 241.533 181.4C242.466 181.4 243.299 181.625 244.033 182.075C244.766 182.525 245.333 183.158 245.733 183.975C246.149 184.775 246.358 185.7 246.358 186.75C246.358 187.95 246.074 189.05 245.508 190.05C244.958 191.05 244.208 191.842 243.258 192.425C242.308 193.008 241.266 193.3 240.133 193.3C239.433 193.3 238.716 193.25 237.983 193.15C237.266 193.067 236.908 193.017 236.908 193L236.683 192.8V177.35ZM238.383 191.4C238.683 191.55 239.066 191.675 239.533 191.775C239.999 191.875 240.433 191.925 240.833 191.925C241.949 191.925 242.824 191.55 243.458 190.8C244.108 190.033 244.433 188.992 244.433 187.675C244.433 186.842 244.283 186.075 243.983 185.375C243.699 184.675 243.299 184.125 242.783 183.725C242.283 183.308 241.733 183.1 241.133 183.1C240.799 183.1 240.374 183.233 239.858 183.5C239.341 183.75 238.874 184.067 238.458 184.45L238.383 191.4Z" fill="#AA2842"/>
<path d="M250.028 186.95C250.028 188.35 250.361 189.475 251.028 190.325C251.711 191.175 252.611 191.6 253.728 191.6C254.195 191.6 254.653 191.542 255.103 191.425C255.553 191.308 255.928 191.192 256.228 191.075C256.528 190.942 256.72 190.858 256.803 190.825L256.953 190.875L257.228 191.6C257.111 191.683 256.836 191.867 256.403 192.15C255.986 192.417 255.495 192.675 254.928 192.925C254.361 193.175 253.853 193.3 253.403 193.3C252.37 193.3 251.453 193.075 250.653 192.625C249.853 192.158 249.236 191.508 248.803 190.675C248.37 189.825 248.153 188.858 248.153 187.775C248.153 186.658 248.403 185.608 248.903 184.625C249.42 183.642 250.103 182.858 250.953 182.275C251.803 181.692 252.711 181.4 253.678 181.4C254.895 181.4 255.82 181.708 256.453 182.325C257.086 182.942 257.403 183.842 257.403 185.025C257.403 185.292 257.378 185.55 257.328 185.8C257.295 186.033 257.27 186.183 257.253 186.25L256.928 186.55H250.028V186.95ZM254.653 185.4C254.903 185.367 255.07 185.308 255.153 185.225C255.236 185.142 255.278 184.975 255.278 184.725C255.278 184.058 255.095 183.55 254.728 183.2C254.378 182.85 253.87 182.675 253.203 182.675C252.42 182.675 251.745 182.942 251.178 183.475C250.628 184.008 250.278 184.725 250.128 185.625L254.653 185.4Z" fill="#AA2842"/>
<path d="M265.584 185.7C265.584 184.867 265.392 184.217 265.009 183.75C264.626 183.283 264.084 183.05 263.384 183.05C262.917 183.05 262.401 183.167 261.834 183.4C261.267 183.633 260.784 183.933 260.384 184.3L260.259 184.225L259.959 183.15C260.809 182.65 261.617 182.233 262.384 181.9C263.167 181.567 263.717 181.4 264.034 181.4C265.117 181.4 265.967 181.683 266.584 182.25C267.201 182.817 267.509 183.608 267.509 184.625C267.509 184.992 267.451 185.742 267.334 186.875C267.151 188.708 267.059 189.875 267.059 190.375C267.059 190.742 267.151 191.025 267.334 191.225C267.517 191.425 267.767 191.525 268.084 191.525C268.317 191.525 268.567 191.467 268.834 191.35C269.117 191.233 269.367 191.083 269.584 190.9L269.934 191.3C269.667 191.767 269.326 192.192 268.909 192.575C268.509 192.942 268.126 193.183 267.759 193.3C266.409 193.3 265.667 192.625 265.534 191.275L265.434 191.25C264.834 191.85 264.284 192.325 263.784 192.675C263.301 193.025 262.934 193.2 262.684 193.2C261.751 193.2 260.984 192.908 260.384 192.325C259.784 191.742 259.484 191 259.484 190.1C259.484 189.617 259.601 189.192 259.834 188.825C260.084 188.458 260.409 188.217 260.809 188.1L265.534 186.8L265.584 185.7ZM262.109 188.775C261.626 188.925 261.384 189.275 261.384 189.825C261.384 190.308 261.542 190.708 261.859 191.025C262.192 191.342 262.609 191.5 263.109 191.5C263.426 191.5 263.792 191.392 264.209 191.175C264.642 190.942 265.034 190.65 265.384 190.3L265.484 187.75L262.109 188.775Z" fill="#AA2842"/>
<path d="M272.155 184.125C272.155 183.675 272.055 183.358 271.854 183.175C271.654 182.992 271.279 182.892 270.729 182.875L270.629 182.725L270.754 181.975C271.238 181.742 271.704 181.458 272.155 181.125C272.621 180.775 272.996 180.475 273.28 180.225C273.579 179.958 273.771 179.783 273.854 179.7L274.354 179.9C274.338 179.983 274.313 180.183 274.28 180.5C274.246 180.817 274.204 181.242 274.155 181.775L277.829 181.7L277.905 181.775L277.68 183.1L274.055 183.025C273.938 184.858 273.879 186.942 273.879 189.275C273.879 190.125 274.021 190.725 274.305 191.075C274.604 191.425 275.113 191.6 275.829 191.6C276.079 191.6 276.329 191.567 276.579 191.5C276.829 191.433 277.038 191.367 277.204 191.3C277.371 191.217 277.48 191.167 277.53 191.15L277.78 191.8C277.68 191.883 277.463 192.042 277.129 192.275C276.813 192.508 276.463 192.742 276.079 192.975C275.713 193.192 275.438 193.3 275.254 193.3C274.121 193.3 273.321 193.075 272.854 192.625C272.388 192.158 272.155 191.375 272.155 190.275V184.125Z" fill="#AA2842"/>
<path d="M290.535 185.7C290.535 184.867 290.344 184.217 289.96 183.75C289.577 183.283 289.035 183.05 288.335 183.05C287.868 183.05 287.352 183.167 286.785 183.4C286.218 183.633 285.735 183.933 285.335 184.3L285.21 184.225L284.91 183.15C285.76 182.65 286.569 182.233 287.335 181.9C288.118 181.567 288.668 181.4 288.985 181.4C290.069 181.4 290.918 181.683 291.535 182.25C292.152 182.817 292.46 183.608 292.46 184.625C292.46 184.992 292.402 185.742 292.285 186.875C292.102 188.708 292.01 189.875 292.01 190.375C292.01 190.742 292.102 191.025 292.285 191.225C292.468 191.425 292.718 191.525 293.035 191.525C293.268 191.525 293.518 191.467 293.785 191.35C294.068 191.233 294.318 191.083 294.535 190.9L294.885 191.3C294.618 191.767 294.277 192.192 293.86 192.575C293.46 192.942 293.077 193.183 292.71 193.3C291.36 193.3 290.618 192.625 290.485 191.275L290.385 191.25C289.785 191.85 289.235 192.325 288.735 192.675C288.252 193.025 287.885 193.2 287.635 193.2C286.702 193.2 285.935 192.908 285.335 192.325C284.735 191.742 284.435 191 284.435 190.1C284.435 189.617 284.552 189.192 284.785 188.825C285.035 188.458 285.36 188.217 285.76 188.1L290.485 186.8L290.535 185.7ZM287.06 188.775C286.577 188.925 286.335 189.275 286.335 189.825C286.335 190.308 286.493 190.708 286.81 191.025C287.143 191.342 287.56 191.5 288.06 191.5C288.377 191.5 288.743 191.392 289.16 191.175C289.593 190.942 289.985 190.65 290.335 190.3L290.435 187.75L287.06 188.775Z" fill="#AA2842"/>
<path d="M299.331 193.3C298.797 193.3 298.306 193.258 297.856 193.175C297.422 193.108 297.081 193.033 296.831 192.95C296.581 192.867 296.422 192.808 296.356 192.775L296.281 192.6C296.331 192.35 296.389 191.833 296.456 191.05C296.522 190.267 296.564 189.667 296.581 189.25L297.456 189.125C297.456 190.225 297.639 191 298.006 191.45C298.372 191.9 298.997 192.125 299.881 192.125C300.514 192.125 301.047 191.983 301.481 191.7C301.914 191.417 302.131 191.067 302.131 190.65C302.131 190.233 301.931 189.858 301.531 189.525C301.147 189.175 300.381 188.692 299.231 188.075C298.281 187.592 297.589 187.108 297.156 186.625C296.722 186.125 296.506 185.575 296.506 184.975C296.506 184.308 296.706 183.7 297.106 183.15C297.506 182.6 298.056 182.175 298.756 181.875C299.456 181.558 300.239 181.4 301.106 181.4C301.506 181.4 301.889 181.433 302.256 181.5C302.622 181.55 302.922 181.608 303.156 181.675C303.389 181.742 303.539 181.783 303.606 181.8L303.656 181.925C303.622 182.092 303.547 182.475 303.431 183.075C303.314 183.658 303.231 184.292 303.181 184.975L302.256 185.05C302.256 185 302.264 184.9 302.281 184.75C302.297 184.6 302.306 184.458 302.306 184.325C302.306 183.725 302.139 183.292 301.806 183.025C301.489 182.742 300.972 182.6 300.256 182.6C299.689 182.6 299.206 182.733 298.806 183C298.422 183.267 298.231 183.592 298.231 183.975C298.231 184.375 298.397 184.75 298.731 185.1C299.081 185.45 299.639 185.825 300.406 186.225C301.756 186.942 302.672 187.542 303.156 188.025C303.656 188.508 303.906 189.067 303.906 189.7C303.906 190.333 303.689 190.925 303.256 191.475C302.839 192.025 302.281 192.467 301.581 192.8C300.881 193.133 300.131 193.3 299.331 193.3Z" fill="#AA2842"/>
<path d="M315.918 193.3C314.968 193.3 314.126 193.067 313.393 192.6C312.66 192.133 312.085 191.483 311.668 190.65C311.268 189.8 311.068 188.833 311.068 187.75C311.068 186.583 311.318 185.517 311.818 184.55C312.335 183.567 313.035 182.8 313.918 182.25C314.801 181.683 315.785 181.4 316.868 181.4C317.801 181.4 318.635 181.633 319.368 182.1C320.118 182.567 320.693 183.225 321.093 184.075C321.51 184.908 321.718 185.867 321.718 186.95C321.718 188.117 321.46 189.192 320.943 190.175C320.443 191.142 319.751 191.908 318.868 192.475C317.985 193.025 317.001 193.3 315.918 193.3ZM316.618 192.075C317.551 192.075 318.293 191.7 318.843 190.95C319.393 190.183 319.668 189.15 319.668 187.85C319.668 186.867 319.518 185.992 319.218 185.225C318.918 184.442 318.493 183.833 317.943 183.4C317.41 182.967 316.801 182.75 316.118 182.75C315.185 182.75 314.443 183.133 313.893 183.9C313.343 184.667 313.068 185.708 313.068 187.025C313.068 188.008 313.218 188.883 313.518 189.65C313.818 190.417 314.235 191.017 314.768 191.45C315.301 191.867 315.918 192.075 316.618 192.075Z" fill="#AA2842"/>
<path d="M330.744 192.275C331.244 192.142 331.602 191.95 331.819 191.7C332.036 191.433 332.144 191.083 332.144 190.65L332.244 185.7C332.244 184.867 332.061 184.225 331.694 183.775C331.344 183.325 330.836 183.1 330.169 183.1C329.636 183.1 329.094 183.242 328.544 183.525C327.994 183.792 327.511 184.083 327.094 184.4C326.944 187.85 326.869 189.9 326.869 190.55C326.869 191.067 326.936 191.433 327.069 191.65C327.202 191.85 327.436 191.95 327.769 191.95C327.952 191.95 328.128 191.942 328.294 191.925C328.461 191.908 328.577 191.9 328.644 191.9L328.694 192L328.469 193.075C328.319 193.058 328.027 193.042 327.594 193.025C327.161 193.008 326.694 193 326.194 193C325.761 193 325.277 193.017 324.744 193.05C324.227 193.1 323.886 193.133 323.719 193.15L323.844 192.125C324.327 192.042 324.669 191.892 324.869 191.675C325.069 191.458 325.169 191.117 325.169 190.65V184.55C325.169 183.983 325.077 183.592 324.894 183.375C324.711 183.142 324.394 183.025 323.944 183.025H323.669L323.594 182.925L323.669 182.1C324.386 181.983 325.094 181.85 325.794 181.7C326.511 181.533 326.969 181.425 327.169 181.375L327.319 181.575C327.286 181.675 327.236 181.892 327.169 182.225C327.102 182.542 327.061 182.875 327.044 183.225L327.094 183.3C328.994 182.033 330.219 181.4 330.769 181.4C331.819 181.4 332.652 181.692 333.269 182.275C333.886 182.858 334.194 183.642 334.194 184.625C334.194 184.792 334.144 185.558 334.044 186.925C333.911 188.658 333.844 189.867 333.844 190.55C333.844 191.033 333.911 191.392 334.044 191.625C334.177 191.842 334.402 191.95 334.719 191.95C334.902 191.95 335.077 191.942 335.244 191.925C335.411 191.908 335.527 191.9 335.594 191.9L335.644 192L335.444 193.075C335.294 193.058 335.011 193.042 334.594 193.025C334.177 193.008 333.719 193 333.219 193C332.786 193 332.286 193.042 331.719 193.125C331.169 193.208 330.811 193.267 330.644 193.3L330.744 192.275Z" fill="#AA2842"/>
<path d="M339.432 186.95C339.432 188.35 339.766 189.475 340.432 190.325C341.116 191.175 342.016 191.6 343.132 191.6C343.599 191.6 344.057 191.542 344.507 191.425C344.957 191.308 345.332 191.192 345.632 191.075C345.932 190.942 346.124 190.858 346.207 190.825L346.357 190.875L346.632 191.6C346.516 191.683 346.241 191.867 345.807 192.15C345.391 192.417 344.899 192.675 344.332 192.925C343.766 193.175 343.257 193.3 342.807 193.3C341.774 193.3 340.857 193.075 340.057 192.625C339.257 192.158 338.641 191.508 338.207 190.675C337.774 189.825 337.557 188.858 337.557 187.775C337.557 186.658 337.807 185.608 338.307 184.625C338.824 183.642 339.507 182.858 340.357 182.275C341.207 181.692 342.116 181.4 343.082 181.4C344.299 181.4 345.224 181.708 345.857 182.325C346.491 182.942 346.807 183.842 346.807 185.025C346.807 185.292 346.782 185.55 346.732 185.8C346.699 186.033 346.674 186.183 346.657 186.25L346.332 186.55H339.432V186.95ZM344.057 185.4C344.307 185.367 344.474 185.308 344.557 185.225C344.641 185.142 344.682 184.975 344.682 184.725C344.682 184.058 344.499 183.55 344.132 183.2C343.782 182.85 343.274 182.675 342.607 182.675C341.824 182.675 341.149 182.942 340.582 183.475C340.032 184.008 339.682 184.725 339.532 185.625L344.057 185.4Z" fill="#AA2842"/>
</svg>
